<mxfile host="65bd71144e">
    <diagram id="XZhXnB_MbU9Ef0PATiab" name="Page-1">
        <mxGraphModel dx="1600" dy="1751" grid="0" gridSize="10" guides="1" tooltips="1" connect="1" arrows="1" fold="1" page="0" pageScale="1" pageWidth="850" pageHeight="1100" math="0" shadow="0">
            <root>
                <mxCell id="0"/>
                <mxCell id="1" parent="0"/>
                <mxCell id="2" value="" style="rounded=0;whiteSpace=wrap;html=1;fontSize=12;fontStyle=1;verticalAlign=middle;fontFamily=Tahoma;" parent="1" vertex="1">
                    <mxGeometry x="40" y="40" width="80" height="40" as="geometry"/>
                </mxCell>
                <mxCell id="3" value="'table" style="rounded=0;whiteSpace=wrap;html=1;fontSize=12;fontStyle=1;verticalAlign=middle;fontFamily=Tahoma;" parent="1" vertex="1">
                    <mxGeometry x="40" y="40" width="40" height="40" as="geometry"/>
                </mxCell>
                <mxCell id="10" style="edgeStyle=none;html=1;entryX=0;entryY=0.5;entryDx=0;entryDy=0;fontSize=12;fontStyle=1;verticalAlign=middle;fontFamily=Tahoma;" parent="1" source="4" target="7" edge="1">
                    <mxGeometry relative="1" as="geometry"/>
                </mxCell>
                <mxCell id="4" value="" style="rounded=0;whiteSpace=wrap;html=1;fontSize=12;fontStyle=1;verticalAlign=middle;fontFamily=Tahoma;" parent="1" vertex="1">
                    <mxGeometry x="80" y="40" width="40" height="40" as="geometry"/>
                </mxCell>
                <mxCell id="5" value="" style="ellipse;whiteSpace=wrap;html=1;fillColor=#1A1A1A;fontSize=12;fontStyle=1;verticalAlign=middle;fontFamily=Tahoma;" parent="1" vertex="1">
                    <mxGeometry x="95" y="55" width="10" height="10" as="geometry"/>
                </mxCell>
                <mxCell id="6" value="" style="rounded=0;whiteSpace=wrap;html=1;fontSize=12;fontStyle=1;verticalAlign=middle;fontFamily=Tahoma;" parent="1" vertex="1">
                    <mxGeometry x="160" y="40" width="80" height="40" as="geometry"/>
                </mxCell>
                <mxCell id="12" style="edgeStyle=orthogonalEdgeStyle;html=1;entryX=1;entryY=0;entryDx=0;entryDy=0;exitX=0.5;exitY=1;exitDx=0;exitDy=0;fontSize=12;fontStyle=1;verticalAlign=middle;fontFamily=Tahoma;" parent="1" source="7" target="18" edge="1">
                    <mxGeometry relative="1" as="geometry">
                        <mxPoint x="180" y="120" as="targetPoint"/>
                    </mxGeometry>
                </mxCell>
                <mxCell id="7" value="" style="rounded=0;whiteSpace=wrap;html=1;fontSize=12;fontStyle=1;verticalAlign=middle;fontFamily=Tahoma;" parent="1" vertex="1">
                    <mxGeometry x="160" y="40" width="40" height="40" as="geometry"/>
                </mxCell>
                <mxCell id="41" style="edgeStyle=none;html=1;entryX=0;entryY=0.5;entryDx=0;entryDy=0;fontSize=12;fontStyle=1;verticalAlign=middle;fontFamily=Tahoma;" parent="1" source="8" target="22" edge="1">
                    <mxGeometry relative="1" as="geometry"/>
                </mxCell>
                <mxCell id="8" value="" style="rounded=0;whiteSpace=wrap;html=1;fontSize=12;fontStyle=1;verticalAlign=middle;fontFamily=Tahoma;" parent="1" vertex="1">
                    <mxGeometry x="200" y="40" width="40" height="40" as="geometry"/>
                </mxCell>
                <mxCell id="9" value="" style="ellipse;whiteSpace=wrap;html=1;fillColor=#1A1A1A;fontSize=12;fontStyle=1;verticalAlign=middle;fontFamily=Tahoma;" parent="1" vertex="1">
                    <mxGeometry x="215" y="55" width="10" height="10" as="geometry"/>
                </mxCell>
                <mxCell id="11" value="" style="ellipse;whiteSpace=wrap;html=1;fillColor=#1A1A1A;fontSize=12;fontStyle=1;verticalAlign=middle;fontFamily=Tahoma;" parent="1" vertex="1">
                    <mxGeometry x="175" y="55" width="10" height="10" as="geometry"/>
                </mxCell>
                <mxCell id="17" value="" style="rounded=0;whiteSpace=wrap;html=1;fontSize=12;fontStyle=1;verticalAlign=middle;fontFamily=Tahoma;" parent="1" vertex="1">
                    <mxGeometry x="140" y="580" width="80" height="40" as="geometry"/>
                </mxCell>
                <mxCell id="18" value="'add" style="rounded=0;whiteSpace=wrap;html=1;fontSize=15;fontStyle=1;verticalAlign=middle;fontFamily=Tahoma;" parent="1" vertex="1">
                    <mxGeometry x="140" y="580" width="40" height="40" as="geometry"/>
                </mxCell>
                <mxCell id="282" style="edgeStyle=orthogonalEdgeStyle;html=1;entryX=0;entryY=0;entryDx=0;entryDy=0;fontSize=12;fontStyle=1;verticalAlign=middle;fontFamily=Tahoma;" parent="1" source="19" target="243" edge="1">
                    <mxGeometry relative="1" as="geometry"/>
                </mxCell>
                <mxCell id="19" value="" style="rounded=0;whiteSpace=wrap;html=1;fontSize=12;fontStyle=1;verticalAlign=middle;fontFamily=Tahoma;" parent="1" vertex="1">
                    <mxGeometry x="180" y="580" width="40" height="40" as="geometry"/>
                </mxCell>
                <mxCell id="20" value="" style="ellipse;whiteSpace=wrap;html=1;fontSize=12;fontStyle=1;verticalAlign=middle;fontFamily=Tahoma;" parent="1" vertex="1">
                    <mxGeometry x="195" y="595" width="10" height="10" as="geometry"/>
                </mxCell>
                <mxCell id="21" value="" style="rounded=0;whiteSpace=wrap;html=1;fontSize=12;fontStyle=1;verticalAlign=middle;fontFamily=Tahoma;" parent="1" vertex="1">
                    <mxGeometry x="280" y="40" width="80" height="40" as="geometry"/>
                </mxCell>
                <mxCell id="54" style="edgeStyle=orthogonalEdgeStyle;html=1;entryX=0;entryY=0;entryDx=0;entryDy=0;exitX=0.5;exitY=1;exitDx=0;exitDy=0;fontSize=12;fontStyle=1;verticalAlign=middle;fontFamily=Tahoma;" parent="1" source="22" target="44" edge="1">
                    <mxGeometry relative="1" as="geometry"/>
                </mxCell>
                <mxCell id="22" value="" style="rounded=0;whiteSpace=wrap;html=1;fontSize=12;fontStyle=1;verticalAlign=middle;fontFamily=Tahoma;" parent="1" vertex="1">
                    <mxGeometry x="280" y="40" width="40" height="40" as="geometry"/>
                </mxCell>
                <mxCell id="57" style="edgeStyle=none;html=1;entryX=0;entryY=0.5;entryDx=0;entryDy=0;fontSize=12;fontStyle=1;verticalAlign=middle;fontFamily=Tahoma;" parent="1" source="23" target="32" edge="1">
                    <mxGeometry relative="1" as="geometry"/>
                </mxCell>
                <mxCell id="23" value="" style="rounded=0;whiteSpace=wrap;html=1;fontSize=12;fontStyle=1;verticalAlign=middle;fontFamily=Tahoma;" parent="1" vertex="1">
                    <mxGeometry x="320" y="40" width="40" height="40" as="geometry"/>
                </mxCell>
                <mxCell id="24" value="" style="ellipse;whiteSpace=wrap;html=1;fillColor=#1A1A1A;fontSize=12;fontStyle=1;verticalAlign=middle;fontFamily=Tahoma;" parent="1" vertex="1">
                    <mxGeometry x="335" y="55" width="10" height="10" as="geometry"/>
                </mxCell>
                <mxCell id="25" value="" style="ellipse;whiteSpace=wrap;html=1;fillColor=#1A1A1A;fontSize=12;fontStyle=1;verticalAlign=middle;fontFamily=Tahoma;" parent="1" vertex="1">
                    <mxGeometry x="295" y="55" width="10" height="10" as="geometry"/>
                </mxCell>
                <mxCell id="31" value="" style="rounded=0;whiteSpace=wrap;html=1;fontSize=12;fontStyle=1;verticalAlign=middle;fontFamily=Tahoma;" parent="1" vertex="1">
                    <mxGeometry x="400" y="40" width="80" height="40" as="geometry"/>
                </mxCell>
                <mxCell id="55" style="edgeStyle=orthogonalEdgeStyle;html=1;entryX=1;entryY=0;entryDx=0;entryDy=0;exitX=0.5;exitY=1;exitDx=0;exitDy=0;fontSize=12;fontStyle=1;verticalAlign=middle;fontFamily=Tahoma;" parent="1" source="32" target="47" edge="1">
                    <mxGeometry relative="1" as="geometry"/>
                </mxCell>
                <mxCell id="32" value="" style="rounded=0;whiteSpace=wrap;html=1;fontSize=12;fontStyle=1;verticalAlign=middle;fontFamily=Tahoma;" parent="1" vertex="1">
                    <mxGeometry x="400" y="40" width="40" height="40" as="geometry"/>
                </mxCell>
                <mxCell id="58" style="edgeStyle=none;html=1;entryX=0;entryY=0.5;entryDx=0;entryDy=0;fontSize=12;fontStyle=1;verticalAlign=middle;fontFamily=Tahoma;" parent="1" source="33" target="37" edge="1">
                    <mxGeometry relative="1" as="geometry"/>
                </mxCell>
                <mxCell id="33" value="" style="rounded=0;whiteSpace=wrap;html=1;fontSize=12;fontStyle=1;verticalAlign=middle;fontFamily=Tahoma;" parent="1" vertex="1">
                    <mxGeometry x="440" y="40" width="40" height="40" as="geometry"/>
                </mxCell>
                <mxCell id="34" value="" style="ellipse;whiteSpace=wrap;html=1;fillColor=#1A1A1A;fontSize=12;fontStyle=1;verticalAlign=middle;fontFamily=Tahoma;" parent="1" vertex="1">
                    <mxGeometry x="455" y="55" width="10" height="10" as="geometry"/>
                </mxCell>
                <mxCell id="35" value="" style="ellipse;whiteSpace=wrap;html=1;fillColor=#1A1A1A;fontSize=12;fontStyle=1;verticalAlign=middle;fontFamily=Tahoma;" parent="1" vertex="1">
                    <mxGeometry x="415" y="55" width="10" height="10" as="geometry"/>
                </mxCell>
                <mxCell id="36" value="" style="rounded=0;whiteSpace=wrap;html=1;fontSize=12;fontStyle=1;verticalAlign=middle;fontFamily=Tahoma;" parent="1" vertex="1">
                    <mxGeometry x="520" y="40" width="80" height="40" as="geometry"/>
                </mxCell>
                <mxCell id="56" style="edgeStyle=orthogonalEdgeStyle;html=1;entryX=1;entryY=0;entryDx=0;entryDy=0;exitX=0.5;exitY=1;exitDx=0;exitDy=0;fontSize=12;fontStyle=1;verticalAlign=middle;fontFamily=Tahoma;" parent="1" source="37" target="51" edge="1">
                    <mxGeometry relative="1" as="geometry"/>
                </mxCell>
                <mxCell id="37" value="" style="rounded=0;whiteSpace=wrap;html=1;fontSize=12;fontStyle=1;verticalAlign=middle;fontFamily=Tahoma;" parent="1" vertex="1">
                    <mxGeometry x="520" y="40" width="40" height="40" as="geometry"/>
                </mxCell>
                <mxCell id="38" value="" style="rounded=0;whiteSpace=wrap;html=1;gradientColor=none;fontSize=12;fontStyle=1;verticalAlign=middle;fontFamily=Tahoma;" parent="1" vertex="1">
                    <mxGeometry x="560" y="40" width="40" height="40" as="geometry"/>
                </mxCell>
                <mxCell id="40" value="" style="ellipse;whiteSpace=wrap;html=1;fillColor=#1A1A1A;fontSize=12;fontStyle=1;verticalAlign=middle;fontFamily=Tahoma;" parent="1" vertex="1">
                    <mxGeometry x="535" y="55" width="10" height="10" as="geometry"/>
                </mxCell>
                <mxCell id="42" value="" style="rounded=0;whiteSpace=wrap;html=1;fontSize=12;fontStyle=1;verticalAlign=middle;fontFamily=Tahoma;" parent="1" vertex="1">
                    <mxGeometry x="260" y="420" width="80" height="40" as="geometry"/>
                </mxCell>
                <mxCell id="43" value="'sub" style="rounded=0;whiteSpace=wrap;html=1;fontSize=15;fontStyle=1;verticalAlign=middle;fontFamily=Tahoma;" parent="1" vertex="1">
                    <mxGeometry x="260" y="420" width="40" height="40" as="geometry"/>
                </mxCell>
                <mxCell id="233" style="edgeStyle=orthogonalEdgeStyle;html=1;entryX=0;entryY=0;entryDx=0;entryDy=0;fontSize=12;fontStyle=1;verticalAlign=middle;fontFamily=Tahoma;" parent="1" source="44" target="194" edge="1">
                    <mxGeometry relative="1" as="geometry"/>
                </mxCell>
                <mxCell id="44" value="" style="rounded=0;whiteSpace=wrap;html=1;fontSize=12;fontStyle=1;verticalAlign=middle;fontFamily=Tahoma;" parent="1" vertex="1">
                    <mxGeometry x="300" y="420" width="40" height="40" as="geometry"/>
                </mxCell>
                <mxCell id="45" value="" style="ellipse;whiteSpace=wrap;html=1;fillColor=#1A1A1A;fontSize=12;fontStyle=1;verticalAlign=middle;fontFamily=Tahoma;" parent="1" vertex="1">
                    <mxGeometry x="315" y="435" width="10" height="10" as="geometry"/>
                </mxCell>
                <mxCell id="46" value="" style="rounded=0;whiteSpace=wrap;html=1;fontSize=12;fontStyle=1;verticalAlign=middle;fontFamily=Tahoma;" parent="1" vertex="1">
                    <mxGeometry x="380" y="260" width="80" height="40" as="geometry"/>
                </mxCell>
                <mxCell id="47" value="'mul" style="rounded=0;whiteSpace=wrap;html=1;fontSize=15;fontStyle=1;verticalAlign=middle;fontFamily=Tahoma;" parent="1" vertex="1">
                    <mxGeometry x="380" y="260" width="40" height="40" as="geometry"/>
                </mxCell>
                <mxCell id="184" style="edgeStyle=orthogonalEdgeStyle;html=1;entryX=0;entryY=0;entryDx=0;entryDy=0;fontSize=12;fontStyle=1;verticalAlign=middle;fontFamily=Tahoma;" parent="1" source="48" target="145" edge="1">
                    <mxGeometry relative="1" as="geometry"/>
                </mxCell>
                <mxCell id="48" value="" style="rounded=0;whiteSpace=wrap;html=1;fontSize=12;fontStyle=1;verticalAlign=middle;fontFamily=Tahoma;" parent="1" vertex="1">
                    <mxGeometry x="420" y="260" width="40" height="40" as="geometry"/>
                </mxCell>
                <mxCell id="49" value="" style="ellipse;whiteSpace=wrap;html=1;fillColor=#1A1A1A;fontSize=12;fontStyle=1;verticalAlign=middle;fontFamily=Tahoma;" parent="1" vertex="1">
                    <mxGeometry x="435" y="275" width="10" height="10" as="geometry"/>
                </mxCell>
                <mxCell id="50" value="" style="rounded=0;whiteSpace=wrap;html=1;fontSize=12;fontStyle=1;verticalAlign=middle;fontFamily=Tahoma;" parent="1" vertex="1">
                    <mxGeometry x="500" y="100" width="80" height="40" as="geometry"/>
                </mxCell>
                <mxCell id="51" value="'div" style="rounded=0;whiteSpace=wrap;html=1;fontSize=17;fontStyle=1;verticalAlign=middle;fontFamily=Tahoma;" parent="1" vertex="1">
                    <mxGeometry x="500" y="100" width="40" height="40" as="geometry"/>
                </mxCell>
                <mxCell id="52" value="" style="rounded=0;whiteSpace=wrap;html=1;fontSize=12;fontStyle=1;verticalAlign=middle;fontFamily=Tahoma;" parent="1" vertex="1">
                    <mxGeometry x="540" y="100" width="40" height="40" as="geometry"/>
                </mxCell>
                <mxCell id="89" style="edgeStyle=orthogonalEdgeStyle;html=1;entryX=0;entryY=0;entryDx=0;entryDy=0;fontSize=12;fontStyle=1;verticalAlign=middle;fontFamily=Tahoma;" parent="1" target="87" edge="1">
                    <mxGeometry relative="1" as="geometry">
                        <mxPoint x="560" y="140" as="sourcePoint"/>
                    </mxGeometry>
                </mxCell>
                <mxCell id="53" value="" style="ellipse;whiteSpace=wrap;html=1;strokeColor=#000000;fillColor=#1A1A1A;fontSize=12;fontStyle=1;verticalAlign=middle;fontFamily=Tahoma;" parent="1" vertex="1">
                    <mxGeometry x="555" y="115" width="10" height="10" as="geometry"/>
                </mxCell>
                <mxCell id="59" value="" style="endArrow=none;html=1;fontSize=12;fontStyle=1;verticalAlign=middle;fontFamily=Tahoma;" parent="1" edge="1">
                    <mxGeometry width="50" height="50" relative="1" as="geometry">
                        <mxPoint x="560" y="80" as="sourcePoint"/>
                        <mxPoint x="600" y="40" as="targetPoint"/>
                    </mxGeometry>
                </mxCell>
                <mxCell id="79" value="" style="rounded=0;whiteSpace=wrap;html=1;fontSize=12;fontStyle=1;verticalAlign=middle;fontFamily=Tahoma;" parent="1" vertex="1">
                    <mxGeometry x="520" y="160" width="80" height="40" as="geometry"/>
                </mxCell>
                <mxCell id="80" style="edgeStyle=none;html=1;entryX=0;entryY=0;entryDx=0;entryDy=0;fontSize=12;fontStyle=1;verticalAlign=middle;fontFamily=Tahoma;" parent="1" target="86" edge="1">
                    <mxGeometry relative="1" as="geometry">
                        <mxPoint x="540" y="185" as="sourcePoint"/>
                    </mxGeometry>
                </mxCell>
                <mxCell id="81" value="" style="rounded=0;whiteSpace=wrap;html=1;fontSize=12;fontStyle=1;verticalAlign=middle;fontFamily=Tahoma;" parent="1" vertex="1">
                    <mxGeometry x="520" y="160" width="40" height="40" as="geometry"/>
                </mxCell>
                <mxCell id="82" value="" style="rounded=0;whiteSpace=wrap;html=1;fontSize=12;fontStyle=1;verticalAlign=middle;fontFamily=Tahoma;" parent="1" vertex="1">
                    <mxGeometry x="520" y="160" width="80" height="40" as="geometry"/>
                </mxCell>
                <mxCell id="83" value="" style="ellipse;whiteSpace=wrap;html=1;strokeColor=#000000;fillColor=#1A1A1A;fontSize=12;fontStyle=1;verticalAlign=middle;fontFamily=Tahoma;" parent="1" vertex="1">
                    <mxGeometry x="535" y="175" width="10" height="10" as="geometry"/>
                </mxCell>
                <mxCell id="84" value="" style="rounded=0;whiteSpace=wrap;html=1;fontSize=12;fontStyle=1;verticalAlign=middle;fontFamily=Tahoma;" parent="1" vertex="1">
                    <mxGeometry x="500" y="220" width="80" height="40" as="geometry"/>
                </mxCell>
                <mxCell id="85" value="'Z" style="rounded=0;whiteSpace=wrap;html=1;fontSize=12;fontStyle=1;verticalAlign=middle;fontFamily=Tahoma;" parent="1" vertex="1">
                    <mxGeometry x="500" y="220" width="40" height="40" as="geometry"/>
                </mxCell>
                <mxCell id="86" value="λ" style="rounded=0;whiteSpace=wrap;html=1;fontSize=12;fontStyle=1;verticalAlign=middle;fontFamily=Tahoma;" parent="1" vertex="1">
                    <mxGeometry x="540" y="220" width="40" height="40" as="geometry"/>
                </mxCell>
                <mxCell id="109" style="edgeStyle=orthogonalEdgeStyle;html=1;entryX=0;entryY=0.5;entryDx=0;entryDy=0;fontSize=12;fontStyle=1;verticalAlign=middle;fontFamily=Tahoma;" parent="1" source="87" target="92" edge="1">
                    <mxGeometry relative="1" as="geometry"/>
                </mxCell>
                <mxCell id="87" value="" style="rounded=0;whiteSpace=wrap;html=1;fontSize=12;fontStyle=1;verticalAlign=middle;fontFamily=Tahoma;" parent="1" vertex="1">
                    <mxGeometry x="560" y="160" width="40" height="40" as="geometry"/>
                </mxCell>
                <mxCell id="88" value="" style="ellipse;whiteSpace=wrap;html=1;strokeColor=#000000;fillColor=#1A1A1A;fontSize=12;fontStyle=1;verticalAlign=middle;fontFamily=Tahoma;" parent="1" vertex="1">
                    <mxGeometry x="575" y="175" width="10" height="10" as="geometry"/>
                </mxCell>
                <mxCell id="90" value="" style="rounded=0;whiteSpace=wrap;html=1;fontSize=12;fontStyle=1;verticalAlign=middle;fontFamily=Tahoma;" parent="1" vertex="1">
                    <mxGeometry x="640" y="160" width="80" height="40" as="geometry"/>
                </mxCell>
                <mxCell id="91" value="" style="rounded=0;whiteSpace=wrap;html=1;fontSize=12;fontStyle=1;verticalAlign=middle;fontFamily=Tahoma;" parent="1" vertex="1">
                    <mxGeometry x="640" y="160" width="40" height="40" as="geometry"/>
                </mxCell>
                <mxCell id="92" value="" style="rounded=0;whiteSpace=wrap;html=1;fontSize=12;fontStyle=1;verticalAlign=middle;fontFamily=Tahoma;" parent="1" vertex="1">
                    <mxGeometry x="640" y="160" width="80" height="40" as="geometry"/>
                </mxCell>
                <mxCell id="110" style="edgeStyle=orthogonalEdgeStyle;html=1;fontSize=12;fontStyle=1;verticalAlign=middle;fontFamily=Tahoma;" parent="1" source="94" target="98" edge="1">
                    <mxGeometry relative="1" as="geometry"/>
                </mxCell>
                <mxCell id="94" value="" style="rounded=0;whiteSpace=wrap;html=1;fontSize=12;fontStyle=1;verticalAlign=middle;fontFamily=Tahoma;" parent="1" vertex="1">
                    <mxGeometry x="680" y="160" width="40" height="40" as="geometry"/>
                </mxCell>
                <mxCell id="95" value="" style="ellipse;whiteSpace=wrap;html=1;strokeColor=#000000;fillColor=#1A1A1A;fontSize=12;fontStyle=1;verticalAlign=middle;fontFamily=Tahoma;" parent="1" vertex="1">
                    <mxGeometry x="695" y="175" width="10" height="10" as="geometry"/>
                </mxCell>
                <mxCell id="96" value="" style="rounded=0;whiteSpace=wrap;html=1;fontSize=12;fontStyle=1;verticalAlign=middle;fontFamily=Tahoma;" parent="1" vertex="1">
                    <mxGeometry x="760" y="160" width="80" height="40" as="geometry"/>
                </mxCell>
                <mxCell id="97" value="" style="rounded=0;whiteSpace=wrap;html=1;fontSize=12;fontStyle=1;verticalAlign=middle;fontFamily=Tahoma;" parent="1" vertex="1">
                    <mxGeometry x="760" y="160" width="40" height="40" as="geometry"/>
                </mxCell>
                <mxCell id="98" value="" style="rounded=0;whiteSpace=wrap;html=1;fontSize=12;fontStyle=1;verticalAlign=middle;fontFamily=Tahoma;" parent="1" vertex="1">
                    <mxGeometry x="760" y="160" width="80" height="40" as="geometry"/>
                </mxCell>
                <mxCell id="111" style="edgeStyle=orthogonalEdgeStyle;html=1;entryX=0;entryY=0.5;entryDx=0;entryDy=0;fontSize=12;fontStyle=1;verticalAlign=middle;fontFamily=Tahoma;" parent="1" source="100" target="104" edge="1">
                    <mxGeometry relative="1" as="geometry"/>
                </mxCell>
                <mxCell id="100" value="" style="rounded=0;whiteSpace=wrap;html=1;fontSize=12;fontStyle=1;verticalAlign=middle;fontFamily=Tahoma;" parent="1" vertex="1">
                    <mxGeometry x="800" y="160" width="40" height="40" as="geometry"/>
                </mxCell>
                <mxCell id="101" value="" style="ellipse;whiteSpace=wrap;html=1;strokeColor=#000000;fillColor=#1A1A1A;fontSize=12;fontStyle=1;verticalAlign=middle;fontFamily=Tahoma;" parent="1" vertex="1">
                    <mxGeometry x="815" y="175" width="10" height="10" as="geometry"/>
                </mxCell>
                <mxCell id="102" value="" style="rounded=0;whiteSpace=wrap;html=1;fontSize=12;fontStyle=1;verticalAlign=middle;fontFamily=Tahoma;" parent="1" vertex="1">
                    <mxGeometry x="880" y="160" width="80" height="40" as="geometry"/>
                </mxCell>
                <mxCell id="103" value="" style="rounded=0;whiteSpace=wrap;html=1;fontSize=12;fontStyle=1;verticalAlign=middle;fontFamily=Tahoma;" parent="1" vertex="1">
                    <mxGeometry x="880" y="160" width="40" height="40" as="geometry"/>
                </mxCell>
                <mxCell id="104" value="" style="rounded=0;whiteSpace=wrap;html=1;fontSize=12;fontStyle=1;verticalAlign=middle;fontFamily=Tahoma;" parent="1" vertex="1">
                    <mxGeometry x="880" y="160" width="80" height="40" as="geometry"/>
                </mxCell>
                <mxCell id="332" style="edgeStyle=none;html=1;" parent="1" source="106" target="329" edge="1">
                    <mxGeometry relative="1" as="geometry"/>
                </mxCell>
                <mxCell id="106" value="" style="rounded=0;whiteSpace=wrap;html=1;fontSize=12;fontStyle=1;verticalAlign=middle;fontFamily=Tahoma;" parent="1" vertex="1">
                    <mxGeometry x="920" y="160" width="40" height="40" as="geometry"/>
                </mxCell>
                <mxCell id="112" value="" style="rounded=0;whiteSpace=wrap;html=1;fontSize=12;fontStyle=1;verticalAlign=middle;fontFamily=Tahoma;" parent="1" vertex="1">
                    <mxGeometry x="620" y="220" width="80" height="40" as="geometry"/>
                </mxCell>
                <mxCell id="113" value="'Q" style="rounded=0;whiteSpace=wrap;html=1;fontSize=12;fontStyle=1;verticalAlign=middle;fontFamily=Tahoma;" parent="1" vertex="1">
                    <mxGeometry x="620" y="220" width="40" height="40" as="geometry"/>
                </mxCell>
                <mxCell id="114" value="λ" style="rounded=0;whiteSpace=wrap;html=1;fontSize=17;fontStyle=1;verticalAlign=middle;fontFamily=Tahoma;" parent="1" vertex="1">
                    <mxGeometry x="660" y="220" width="40" height="40" as="geometry"/>
                </mxCell>
                <mxCell id="115" value="" style="rounded=0;whiteSpace=wrap;html=1;fontSize=12;fontStyle=1;verticalAlign=middle;fontFamily=Tahoma;" parent="1" vertex="1">
                    <mxGeometry x="740" y="220" width="80" height="40" as="geometry"/>
                </mxCell>
                <mxCell id="116" value="'R" style="rounded=0;whiteSpace=wrap;html=1;fontSize=12;fontStyle=1;verticalAlign=middle;fontFamily=Tahoma;" parent="1" vertex="1">
                    <mxGeometry x="740" y="220" width="40" height="40" as="geometry"/>
                </mxCell>
                <mxCell id="117" value="λ" style="rounded=0;whiteSpace=wrap;html=1;fontSize=17;fontStyle=1;verticalAlign=middle;fontFamily=Tahoma;" parent="1" vertex="1">
                    <mxGeometry x="780" y="220" width="40" height="40" as="geometry"/>
                </mxCell>
                <mxCell id="118" value="" style="rounded=0;whiteSpace=wrap;html=1;fontSize=12;fontStyle=1;verticalAlign=middle;fontFamily=Tahoma;" parent="1" vertex="1">
                    <mxGeometry x="860" y="220" width="80" height="40" as="geometry"/>
                </mxCell>
                <mxCell id="119" value="'C" style="rounded=0;whiteSpace=wrap;html=1;fontSize=17;fontStyle=1;verticalAlign=middle;fontFamily=Tahoma;" parent="1" vertex="1">
                    <mxGeometry x="860" y="220" width="40" height="40" as="geometry"/>
                </mxCell>
                <mxCell id="120" value="λ" style="rounded=0;whiteSpace=wrap;html=1;fontSize=17;fontStyle=1;verticalAlign=middle;fontFamily=Tahoma;" parent="1" vertex="1">
                    <mxGeometry x="900" y="220" width="40" height="40" as="geometry"/>
                </mxCell>
                <mxCell id="125" style="edgeStyle=orthogonalEdgeStyle;html=1;entryX=0;entryY=0;entryDx=0;entryDy=0;fontSize=12;fontStyle=1;verticalAlign=middle;fontFamily=Tahoma;" parent="1" target="114" edge="1">
                    <mxGeometry relative="1" as="geometry">
                        <mxPoint x="660" y="184.9999999999999" as="sourcePoint"/>
                    </mxGeometry>
                </mxCell>
                <mxCell id="122" value="" style="rounded=0;whiteSpace=wrap;html=1;fontSize=12;fontStyle=1;verticalAlign=middle;fontFamily=Tahoma;" parent="1" vertex="1">
                    <mxGeometry x="640" y="160" width="40" height="40" as="geometry"/>
                </mxCell>
                <mxCell id="93" value="" style="ellipse;whiteSpace=wrap;html=1;strokeColor=#000000;fillColor=#1A1A1A;fontSize=12;fontStyle=1;verticalAlign=middle;fontFamily=Tahoma;" parent="1" vertex="1">
                    <mxGeometry x="655" y="175" width="10" height="10" as="geometry"/>
                </mxCell>
                <mxCell id="126" value="" style="rounded=0;whiteSpace=wrap;html=1;fontSize=12;fontStyle=1;verticalAlign=middle;fontFamily=Tahoma;" parent="1" vertex="1">
                    <mxGeometry x="760" y="160" width="40" height="40" as="geometry"/>
                </mxCell>
                <mxCell id="132" style="edgeStyle=orthogonalEdgeStyle;html=1;entryX=0;entryY=0;entryDx=0;entryDy=0;fontSize=12;fontStyle=1;verticalAlign=middle;fontFamily=Tahoma;" parent="1" target="117" edge="1">
                    <mxGeometry relative="1" as="geometry">
                        <mxPoint x="780" y="184.9999999999999" as="sourcePoint"/>
                    </mxGeometry>
                </mxCell>
                <mxCell id="127" value="" style="rounded=0;whiteSpace=wrap;html=1;fontSize=12;fontStyle=1;verticalAlign=middle;fontFamily=Tahoma;" parent="1" vertex="1">
                    <mxGeometry x="760" y="160" width="40" height="40" as="geometry"/>
                </mxCell>
                <mxCell id="128" value="" style="ellipse;whiteSpace=wrap;html=1;strokeColor=#000000;fillColor=#1A1A1A;fontSize=12;fontStyle=1;verticalAlign=middle;fontFamily=Tahoma;" parent="1" vertex="1">
                    <mxGeometry x="775" y="175" width="10" height="10" as="geometry"/>
                </mxCell>
                <mxCell id="129" value="" style="rounded=0;whiteSpace=wrap;html=1;fontSize=12;fontStyle=1;verticalAlign=middle;fontFamily=Tahoma;" parent="1" vertex="1">
                    <mxGeometry x="880" y="160" width="40" height="40" as="geometry"/>
                </mxCell>
                <mxCell id="133" style="edgeStyle=orthogonalEdgeStyle;html=1;entryX=0;entryY=0;entryDx=0;entryDy=0;fontSize=12;fontStyle=1;verticalAlign=middle;fontFamily=Tahoma;" parent="1" target="120" edge="1">
                    <mxGeometry relative="1" as="geometry">
                        <mxPoint x="900" y="184.9999999999999" as="sourcePoint"/>
                    </mxGeometry>
                </mxCell>
                <mxCell id="130" value="" style="rounded=0;whiteSpace=wrap;html=1;fontSize=12;fontStyle=1;verticalAlign=middle;fontFamily=Tahoma;" parent="1" vertex="1">
                    <mxGeometry x="880" y="160" width="40" height="40" as="geometry"/>
                </mxCell>
                <mxCell id="131" value="" style="ellipse;whiteSpace=wrap;html=1;strokeColor=#000000;fillColor=#1A1A1A;fontSize=12;fontStyle=1;verticalAlign=middle;fontFamily=Tahoma;" parent="1" vertex="1">
                    <mxGeometry x="895" y="175" width="10" height="10" as="geometry"/>
                </mxCell>
                <mxCell id="136" value="" style="rounded=0;whiteSpace=wrap;html=1;fontSize=12;fontStyle=1;verticalAlign=middle;fontFamily=Tahoma;" parent="1" vertex="1">
                    <mxGeometry x="400" y="320" width="80" height="40" as="geometry"/>
                </mxCell>
                <mxCell id="137" style="edgeStyle=none;html=1;entryX=0;entryY=0;entryDx=0;entryDy=0;fontSize=12;fontStyle=1;verticalAlign=middle;fontFamily=Tahoma;" parent="1" target="143" edge="1">
                    <mxGeometry relative="1" as="geometry">
                        <mxPoint x="420" y="360.0000000000001" as="sourcePoint"/>
                    </mxGeometry>
                </mxCell>
                <mxCell id="138" value="" style="rounded=0;whiteSpace=wrap;html=1;fontSize=12;fontStyle=1;verticalAlign=middle;fontFamily=Tahoma;" parent="1" vertex="1">
                    <mxGeometry x="400" y="320" width="40" height="40" as="geometry"/>
                </mxCell>
                <mxCell id="139" value="" style="rounded=0;whiteSpace=wrap;html=1;fontSize=12;fontStyle=1;verticalAlign=middle;fontFamily=Tahoma;" parent="1" vertex="1">
                    <mxGeometry x="400" y="320" width="80" height="40" as="geometry"/>
                </mxCell>
                <mxCell id="140" value="" style="ellipse;whiteSpace=wrap;html=1;fillColor=#1A1A1A;fontSize=12;fontStyle=1;verticalAlign=middle;fontFamily=Tahoma;" parent="1" vertex="1">
                    <mxGeometry x="415" y="335" width="10" height="10" as="geometry"/>
                </mxCell>
                <mxCell id="141" value="" style="rounded=0;whiteSpace=wrap;html=1;fontSize=12;fontStyle=1;verticalAlign=middle;fontFamily=Tahoma;" parent="1" vertex="1">
                    <mxGeometry x="380" y="380" width="80" height="40" as="geometry"/>
                </mxCell>
                <mxCell id="142" value="'Z" style="rounded=0;whiteSpace=wrap;html=1;fontSize=12;fontStyle=1;verticalAlign=middle;fontFamily=Tahoma;" parent="1" vertex="1">
                    <mxGeometry x="380" y="380" width="40" height="40" as="geometry"/>
                </mxCell>
                <mxCell id="143" value="λ" style="rounded=0;whiteSpace=wrap;html=1;fontSize=17;fontStyle=1;verticalAlign=middle;fontFamily=Tahoma;" parent="1" vertex="1">
                    <mxGeometry x="420" y="380" width="40" height="40" as="geometry"/>
                </mxCell>
                <mxCell id="144" style="edgeStyle=orthogonalEdgeStyle;html=1;entryX=0;entryY=0.5;entryDx=0;entryDy=0;fontSize=12;fontStyle=1;verticalAlign=middle;fontFamily=Tahoma;" parent="1" source="145" target="149" edge="1">
                    <mxGeometry relative="1" as="geometry"/>
                </mxCell>
                <mxCell id="145" value="" style="rounded=0;whiteSpace=wrap;html=1;fontSize=12;fontStyle=1;verticalAlign=middle;fontFamily=Tahoma;" parent="1" vertex="1">
                    <mxGeometry x="440" y="320" width="40" height="40" as="geometry"/>
                </mxCell>
                <mxCell id="146" value="" style="ellipse;whiteSpace=wrap;html=1;fillColor=#1A1A1A;fontSize=12;fontStyle=1;verticalAlign=middle;fontFamily=Tahoma;" parent="1" vertex="1">
                    <mxGeometry x="455" y="335" width="10" height="10" as="geometry"/>
                </mxCell>
                <mxCell id="147" value="" style="rounded=0;whiteSpace=wrap;html=1;fontSize=12;fontStyle=1;verticalAlign=middle;fontFamily=Tahoma;" parent="1" vertex="1">
                    <mxGeometry x="520" y="320" width="80" height="40" as="geometry"/>
                </mxCell>
                <mxCell id="148" value="" style="rounded=0;whiteSpace=wrap;html=1;fontSize=12;fontStyle=1;verticalAlign=middle;fontFamily=Tahoma;" parent="1" vertex="1">
                    <mxGeometry x="520" y="320" width="40" height="40" as="geometry"/>
                </mxCell>
                <mxCell id="149" value="" style="rounded=0;whiteSpace=wrap;html=1;fontSize=12;fontStyle=1;verticalAlign=middle;fontFamily=Tahoma;" parent="1" vertex="1">
                    <mxGeometry x="520" y="320" width="80" height="40" as="geometry"/>
                </mxCell>
                <mxCell id="150" style="edgeStyle=orthogonalEdgeStyle;html=1;fontSize=12;fontStyle=1;verticalAlign=middle;fontFamily=Tahoma;" parent="1" source="151" target="155" edge="1">
                    <mxGeometry relative="1" as="geometry"/>
                </mxCell>
                <mxCell id="151" value="" style="rounded=0;whiteSpace=wrap;html=1;fontSize=12;fontStyle=1;verticalAlign=middle;fontFamily=Tahoma;" parent="1" vertex="1">
                    <mxGeometry x="560" y="320" width="40" height="40" as="geometry"/>
                </mxCell>
                <mxCell id="152" value="" style="ellipse;whiteSpace=wrap;html=1;fillColor=#1A1A1A;fontSize=12;fontStyle=1;verticalAlign=middle;fontFamily=Tahoma;" parent="1" vertex="1">
                    <mxGeometry x="575" y="335" width="10" height="10" as="geometry"/>
                </mxCell>
                <mxCell id="153" value="" style="rounded=0;whiteSpace=wrap;html=1;fontSize=12;fontStyle=1;verticalAlign=middle;fontFamily=Tahoma;" parent="1" vertex="1">
                    <mxGeometry x="640" y="320" width="80" height="40" as="geometry"/>
                </mxCell>
                <mxCell id="154" value="" style="rounded=0;whiteSpace=wrap;html=1;fontSize=12;fontStyle=1;verticalAlign=middle;fontFamily=Tahoma;" parent="1" vertex="1">
                    <mxGeometry x="640" y="320" width="40" height="40" as="geometry"/>
                </mxCell>
                <mxCell id="155" value="" style="rounded=0;whiteSpace=wrap;html=1;fontSize=12;fontStyle=1;verticalAlign=middle;fontFamily=Tahoma;" parent="1" vertex="1">
                    <mxGeometry x="640" y="320" width="80" height="40" as="geometry"/>
                </mxCell>
                <mxCell id="156" style="edgeStyle=orthogonalEdgeStyle;html=1;entryX=0;entryY=0.5;entryDx=0;entryDy=0;fontSize=12;fontStyle=1;verticalAlign=middle;fontFamily=Tahoma;" parent="1" source="157" edge="1">
                    <mxGeometry relative="1" as="geometry">
                        <mxPoint x="760" y="340" as="targetPoint"/>
                    </mxGeometry>
                </mxCell>
                <mxCell id="157" value="" style="rounded=0;whiteSpace=wrap;html=1;fontSize=12;fontStyle=1;verticalAlign=middle;fontFamily=Tahoma;" parent="1" vertex="1">
                    <mxGeometry x="680" y="320" width="40" height="40" as="geometry"/>
                </mxCell>
                <mxCell id="158" value="" style="ellipse;whiteSpace=wrap;html=1;fillColor=#1A1A1A;fontSize=12;fontStyle=1;verticalAlign=middle;fontFamily=Tahoma;" parent="1" vertex="1">
                    <mxGeometry x="695" y="335" width="10" height="10" as="geometry"/>
                </mxCell>
                <mxCell id="163" value="" style="rounded=0;whiteSpace=wrap;html=1;fontSize=12;fontStyle=1;verticalAlign=middle;fontFamily=Tahoma;" parent="1" vertex="1">
                    <mxGeometry x="500" y="380" width="80" height="40" as="geometry"/>
                </mxCell>
                <mxCell id="164" value="'Q" style="rounded=0;whiteSpace=wrap;html=1;fontSize=12;fontStyle=1;verticalAlign=middle;fontFamily=Tahoma;" parent="1" vertex="1">
                    <mxGeometry x="500" y="380" width="40" height="40" as="geometry"/>
                </mxCell>
                <mxCell id="165" value="λ" style="rounded=0;whiteSpace=wrap;html=1;fontSize=17;fontStyle=1;verticalAlign=middle;fontFamily=Tahoma;" parent="1" vertex="1">
                    <mxGeometry x="540" y="380" width="40" height="40" as="geometry"/>
                </mxCell>
                <mxCell id="166" value="" style="rounded=0;whiteSpace=wrap;html=1;fontSize=12;fontStyle=1;verticalAlign=middle;fontFamily=Tahoma;" parent="1" vertex="1">
                    <mxGeometry x="620" y="380" width="80" height="40" as="geometry"/>
                </mxCell>
                <mxCell id="167" value="'R" style="rounded=0;whiteSpace=wrap;html=1;fontSize=12;fontStyle=1;verticalAlign=middle;fontFamily=Tahoma;" parent="1" vertex="1">
                    <mxGeometry x="620" y="380" width="40" height="40" as="geometry"/>
                </mxCell>
                <mxCell id="168" value="λ" style="rounded=0;whiteSpace=wrap;html=1;fontSize=12;fontStyle=1;verticalAlign=middle;fontFamily=Tahoma;" parent="1" vertex="1">
                    <mxGeometry x="660" y="380" width="40" height="40" as="geometry"/>
                </mxCell>
                <mxCell id="172" style="edgeStyle=orthogonalEdgeStyle;html=1;entryX=0;entryY=0;entryDx=0;entryDy=0;fontSize=12;fontStyle=1;verticalAlign=middle;fontFamily=Tahoma;" parent="1" source="173" target="165" edge="1">
                    <mxGeometry relative="1" as="geometry"/>
                </mxCell>
                <mxCell id="173" value="" style="rounded=0;whiteSpace=wrap;html=1;fontSize=12;fontStyle=1;verticalAlign=middle;fontFamily=Tahoma;" parent="1" vertex="1">
                    <mxGeometry x="520" y="320" width="40" height="40" as="geometry"/>
                </mxCell>
                <mxCell id="174" value="" style="ellipse;whiteSpace=wrap;html=1;fillColor=#1A1A1A;fontSize=12;fontStyle=1;verticalAlign=middle;fontFamily=Tahoma;" parent="1" vertex="1">
                    <mxGeometry x="535" y="335" width="10" height="10" as="geometry"/>
                </mxCell>
                <mxCell id="175" value="" style="rounded=0;whiteSpace=wrap;html=1;fontSize=12;fontStyle=1;verticalAlign=middle;fontFamily=Tahoma;" parent="1" vertex="1">
                    <mxGeometry x="640" y="320" width="40" height="40" as="geometry"/>
                </mxCell>
                <mxCell id="176" style="edgeStyle=orthogonalEdgeStyle;html=1;entryX=0;entryY=0;entryDx=0;entryDy=0;fontSize=12;fontStyle=1;verticalAlign=middle;fontFamily=Tahoma;" parent="1" source="177" target="168" edge="1">
                    <mxGeometry relative="1" as="geometry"/>
                </mxCell>
                <mxCell id="177" value="" style="rounded=0;whiteSpace=wrap;html=1;fontSize=12;fontStyle=1;verticalAlign=middle;fontFamily=Tahoma;" parent="1" vertex="1">
                    <mxGeometry x="640" y="320" width="40" height="40" as="geometry"/>
                </mxCell>
                <mxCell id="178" value="" style="ellipse;whiteSpace=wrap;html=1;fillColor=#1A1A1A;fontSize=12;fontStyle=1;verticalAlign=middle;fontFamily=Tahoma;" parent="1" vertex="1">
                    <mxGeometry x="655" y="335" width="10" height="10" as="geometry"/>
                </mxCell>
                <mxCell id="185" value="" style="rounded=0;whiteSpace=wrap;html=1;fontSize=12;fontStyle=1;verticalAlign=middle;fontFamily=Tahoma;" parent="1" vertex="1">
                    <mxGeometry x="280" y="480" width="80" height="40" as="geometry"/>
                </mxCell>
                <mxCell id="186" style="edgeStyle=none;html=1;entryX=0;entryY=0;entryDx=0;entryDy=0;fontSize=12;fontStyle=1;verticalAlign=middle;fontFamily=Tahoma;" parent="1" target="192" edge="1">
                    <mxGeometry relative="1" as="geometry">
                        <mxPoint x="300" y="520" as="sourcePoint"/>
                    </mxGeometry>
                </mxCell>
                <mxCell id="187" value="" style="rounded=0;whiteSpace=wrap;html=1;fontSize=12;fontStyle=1;verticalAlign=middle;fontFamily=Tahoma;" parent="1" vertex="1">
                    <mxGeometry x="280" y="480" width="40" height="40" as="geometry"/>
                </mxCell>
                <mxCell id="188" value="" style="rounded=0;whiteSpace=wrap;html=1;fontSize=12;fontStyle=1;verticalAlign=middle;fontFamily=Tahoma;" parent="1" vertex="1">
                    <mxGeometry x="280" y="480" width="80" height="40" as="geometry"/>
                </mxCell>
                <mxCell id="189" value="" style="ellipse;whiteSpace=wrap;html=1;fillColor=#1A1A1A;fontSize=12;fontStyle=1;verticalAlign=middle;fontFamily=Tahoma;" parent="1" vertex="1">
                    <mxGeometry x="295" y="495" width="10" height="10" as="geometry"/>
                </mxCell>
                <mxCell id="190" value="" style="rounded=0;whiteSpace=wrap;html=1;fontSize=12;fontStyle=1;verticalAlign=middle;fontFamily=Tahoma;" parent="1" vertex="1">
                    <mxGeometry x="260" y="540" width="80" height="40" as="geometry"/>
                </mxCell>
                <mxCell id="191" value="'Z" style="rounded=0;whiteSpace=wrap;html=1;fontSize=12;fontStyle=1;verticalAlign=middle;fontFamily=Tahoma;" parent="1" vertex="1">
                    <mxGeometry x="260" y="540" width="40" height="40" as="geometry"/>
                </mxCell>
                <mxCell id="192" value="λ" style="rounded=0;whiteSpace=wrap;html=1;fontSize=12;fontStyle=1;verticalAlign=middle;fontFamily=Tahoma;" parent="1" vertex="1">
                    <mxGeometry x="300" y="540" width="40" height="40" as="geometry"/>
                </mxCell>
                <mxCell id="193" style="edgeStyle=orthogonalEdgeStyle;html=1;entryX=0;entryY=0.5;entryDx=0;entryDy=0;fontSize=12;fontStyle=1;verticalAlign=middle;fontFamily=Tahoma;" parent="1" source="194" target="198" edge="1">
                    <mxGeometry relative="1" as="geometry"/>
                </mxCell>
                <mxCell id="194" value="" style="rounded=0;whiteSpace=wrap;html=1;fontSize=12;fontStyle=1;verticalAlign=middle;fontFamily=Tahoma;" parent="1" vertex="1">
                    <mxGeometry x="320" y="480" width="40" height="40" as="geometry"/>
                </mxCell>
                <mxCell id="195" value="" style="ellipse;whiteSpace=wrap;html=1;fillColor=#1A1A1A;fontSize=12;fontStyle=1;verticalAlign=middle;fontFamily=Tahoma;" parent="1" vertex="1">
                    <mxGeometry x="335" y="495" width="10" height="10" as="geometry"/>
                </mxCell>
                <mxCell id="196" value="" style="rounded=0;whiteSpace=wrap;html=1;fontSize=12;fontStyle=1;verticalAlign=middle;fontFamily=Tahoma;" parent="1" vertex="1">
                    <mxGeometry x="400" y="480" width="80" height="40" as="geometry"/>
                </mxCell>
                <mxCell id="197" value="" style="rounded=0;whiteSpace=wrap;html=1;fontSize=12;fontStyle=1;verticalAlign=middle;fontFamily=Tahoma;" parent="1" vertex="1">
                    <mxGeometry x="400" y="480" width="40" height="40" as="geometry"/>
                </mxCell>
                <mxCell id="198" value="" style="rounded=0;whiteSpace=wrap;html=1;fontSize=12;fontStyle=1;verticalAlign=middle;fontFamily=Tahoma;" parent="1" vertex="1">
                    <mxGeometry x="400" y="480" width="80" height="40" as="geometry"/>
                </mxCell>
                <mxCell id="199" style="edgeStyle=orthogonalEdgeStyle;html=1;fontSize=12;fontStyle=1;verticalAlign=middle;fontFamily=Tahoma;" parent="1" source="200" target="204" edge="1">
                    <mxGeometry relative="1" as="geometry"/>
                </mxCell>
                <mxCell id="200" value="" style="rounded=0;whiteSpace=wrap;html=1;fontSize=12;fontStyle=1;verticalAlign=middle;fontFamily=Tahoma;" parent="1" vertex="1">
                    <mxGeometry x="440" y="480" width="40" height="40" as="geometry"/>
                </mxCell>
                <mxCell id="201" value="" style="ellipse;whiteSpace=wrap;html=1;fillColor=#1A1A1A;fontSize=12;fontStyle=1;verticalAlign=middle;fontFamily=Tahoma;" parent="1" vertex="1">
                    <mxGeometry x="455" y="495" width="10" height="10" as="geometry"/>
                </mxCell>
                <mxCell id="202" value="" style="rounded=0;whiteSpace=wrap;html=1;fontSize=12;fontStyle=1;verticalAlign=middle;fontFamily=Tahoma;" parent="1" vertex="1">
                    <mxGeometry x="520" y="480" width="80" height="40" as="geometry"/>
                </mxCell>
                <mxCell id="203" value="" style="rounded=0;whiteSpace=wrap;html=1;fontSize=12;fontStyle=1;verticalAlign=middle;fontFamily=Tahoma;" parent="1" vertex="1">
                    <mxGeometry x="520" y="480" width="40" height="40" as="geometry"/>
                </mxCell>
                <mxCell id="204" value="" style="rounded=0;whiteSpace=wrap;html=1;fontSize=12;fontStyle=1;verticalAlign=middle;fontFamily=Tahoma;" parent="1" vertex="1">
                    <mxGeometry x="520" y="480" width="80" height="40" as="geometry"/>
                </mxCell>
                <mxCell id="205" style="edgeStyle=orthogonalEdgeStyle;html=1;entryX=0;entryY=0.5;entryDx=0;entryDy=0;fontSize=12;fontStyle=1;verticalAlign=middle;fontFamily=Tahoma;" parent="1" source="206" edge="1">
                    <mxGeometry relative="1" as="geometry">
                        <mxPoint x="639.9999999999998" y="500" as="targetPoint"/>
                    </mxGeometry>
                </mxCell>
                <mxCell id="206" value="" style="rounded=0;whiteSpace=wrap;html=1;fontSize=12;fontStyle=1;verticalAlign=middle;fontFamily=Tahoma;" parent="1" vertex="1">
                    <mxGeometry x="560" y="480" width="40" height="40" as="geometry"/>
                </mxCell>
                <mxCell id="207" value="" style="ellipse;whiteSpace=wrap;html=1;fillColor=#1A1A1A;fontSize=12;fontStyle=1;verticalAlign=middle;fontFamily=Tahoma;" parent="1" vertex="1">
                    <mxGeometry x="575" y="495" width="10" height="10" as="geometry"/>
                </mxCell>
                <mxCell id="212" value="" style="rounded=0;whiteSpace=wrap;html=1;fontSize=12;fontStyle=1;verticalAlign=middle;fontFamily=Tahoma;" parent="1" vertex="1">
                    <mxGeometry x="380" y="540" width="80" height="40" as="geometry"/>
                </mxCell>
                <mxCell id="213" value="'Q" style="rounded=0;whiteSpace=wrap;html=1;fontSize=12;fontStyle=1;verticalAlign=middle;fontFamily=Tahoma;" parent="1" vertex="1">
                    <mxGeometry x="380" y="540" width="40" height="40" as="geometry"/>
                </mxCell>
                <mxCell id="214" value="λ" style="rounded=0;whiteSpace=wrap;html=1;fontSize=12;fontStyle=1;verticalAlign=middle;fontFamily=Tahoma;" parent="1" vertex="1">
                    <mxGeometry x="420" y="540" width="40" height="40" as="geometry"/>
                </mxCell>
                <mxCell id="215" value="" style="rounded=0;whiteSpace=wrap;html=1;fontSize=12;fontStyle=1;verticalAlign=middle;fontFamily=Tahoma;" parent="1" vertex="1">
                    <mxGeometry x="500" y="540" width="80" height="40" as="geometry"/>
                </mxCell>
                <mxCell id="216" value="'R" style="rounded=0;whiteSpace=wrap;html=1;fontSize=12;fontStyle=1;verticalAlign=middle;fontFamily=Tahoma;" parent="1" vertex="1">
                    <mxGeometry x="500" y="540" width="40" height="40" as="geometry"/>
                </mxCell>
                <mxCell id="217" value="λ" style="rounded=0;whiteSpace=wrap;html=1;fontSize=12;fontStyle=1;verticalAlign=middle;fontFamily=Tahoma;" parent="1" vertex="1">
                    <mxGeometry x="540" y="540" width="40" height="40" as="geometry"/>
                </mxCell>
                <mxCell id="221" style="edgeStyle=orthogonalEdgeStyle;html=1;entryX=0;entryY=0;entryDx=0;entryDy=0;fontSize=12;fontStyle=1;verticalAlign=middle;fontFamily=Tahoma;" parent="1" source="222" target="214" edge="1">
                    <mxGeometry relative="1" as="geometry"/>
                </mxCell>
                <mxCell id="222" value="" style="rounded=0;whiteSpace=wrap;html=1;fontSize=12;fontStyle=1;verticalAlign=middle;fontFamily=Tahoma;" parent="1" vertex="1">
                    <mxGeometry x="400" y="480" width="40" height="40" as="geometry"/>
                </mxCell>
                <mxCell id="223" value="" style="ellipse;whiteSpace=wrap;html=1;fillColor=#1A1A1A;fontSize=12;fontStyle=1;verticalAlign=middle;fontFamily=Tahoma;" parent="1" vertex="1">
                    <mxGeometry x="415" y="495" width="10" height="10" as="geometry"/>
                </mxCell>
                <mxCell id="224" value="" style="rounded=0;whiteSpace=wrap;html=1;fontSize=12;fontStyle=1;verticalAlign=middle;fontFamily=Tahoma;" parent="1" vertex="1">
                    <mxGeometry x="520" y="480" width="40" height="40" as="geometry"/>
                </mxCell>
                <mxCell id="225" style="edgeStyle=orthogonalEdgeStyle;html=1;entryX=0;entryY=0;entryDx=0;entryDy=0;fontSize=12;fontStyle=1;verticalAlign=middle;fontFamily=Tahoma;" parent="1" source="226" target="217" edge="1">
                    <mxGeometry relative="1" as="geometry"/>
                </mxCell>
                <mxCell id="226" value="" style="rounded=0;whiteSpace=wrap;html=1;fontSize=12;fontStyle=1;verticalAlign=middle;fontFamily=Tahoma;" parent="1" vertex="1">
                    <mxGeometry x="520" y="480" width="40" height="40" as="geometry"/>
                </mxCell>
                <mxCell id="227" value="" style="ellipse;whiteSpace=wrap;html=1;fillColor=#1A1A1A;fontSize=12;fontStyle=1;verticalAlign=middle;fontFamily=Tahoma;" parent="1" vertex="1">
                    <mxGeometry x="535" y="495" width="10" height="10" as="geometry"/>
                </mxCell>
                <mxCell id="234" value="" style="rounded=0;whiteSpace=wrap;html=1;fontSize=12;fontStyle=1;verticalAlign=middle;fontFamily=Tahoma;" parent="1" vertex="1">
                    <mxGeometry x="160" y="640" width="80" height="40" as="geometry"/>
                </mxCell>
                <mxCell id="235" style="edgeStyle=none;html=1;entryX=0;entryY=0;entryDx=0;entryDy=0;fontSize=12;fontStyle=1;verticalAlign=middle;fontFamily=Tahoma;" parent="1" target="241" edge="1">
                    <mxGeometry relative="1" as="geometry">
                        <mxPoint x="180" y="680" as="sourcePoint"/>
                    </mxGeometry>
                </mxCell>
                <mxCell id="236" value="" style="rounded=0;whiteSpace=wrap;html=1;fontSize=12;fontStyle=1;verticalAlign=middle;fontFamily=Tahoma;" parent="1" vertex="1">
                    <mxGeometry x="160" y="640" width="40" height="40" as="geometry"/>
                </mxCell>
                <mxCell id="237" value="" style="rounded=0;whiteSpace=wrap;html=1;fontSize=12;fontStyle=1;verticalAlign=middle;fontFamily=Tahoma;" parent="1" vertex="1">
                    <mxGeometry x="160" y="640" width="80" height="40" as="geometry"/>
                </mxCell>
                <mxCell id="238" value="" style="ellipse;whiteSpace=wrap;html=1;fontSize=12;fontStyle=1;verticalAlign=middle;fontFamily=Tahoma;" parent="1" vertex="1">
                    <mxGeometry x="175" y="655" width="10" height="10" as="geometry"/>
                </mxCell>
                <mxCell id="239" value="" style="rounded=0;whiteSpace=wrap;html=1;fontSize=12;fontStyle=1;verticalAlign=middle;fontFamily=Tahoma;" parent="1" vertex="1">
                    <mxGeometry x="140" y="700" width="80" height="40" as="geometry"/>
                </mxCell>
                <mxCell id="240" value="'Z" style="rounded=0;whiteSpace=wrap;html=1;fontSize=12;fontStyle=1;verticalAlign=middle;fontFamily=Tahoma;" parent="1" vertex="1">
                    <mxGeometry x="140" y="700" width="40" height="40" as="geometry"/>
                </mxCell>
                <mxCell id="241" value="λ" style="rounded=0;whiteSpace=wrap;html=1;fontSize=12;fontStyle=1;verticalAlign=middle;fontFamily=Tahoma;" parent="1" vertex="1">
                    <mxGeometry x="180" y="700" width="40" height="40" as="geometry"/>
                </mxCell>
                <mxCell id="242" style="edgeStyle=orthogonalEdgeStyle;html=1;entryX=0;entryY=0.5;entryDx=0;entryDy=0;fontSize=12;fontStyle=1;verticalAlign=middle;fontFamily=Tahoma;" parent="1" source="243" target="247" edge="1">
                    <mxGeometry relative="1" as="geometry"/>
                </mxCell>
                <mxCell id="243" value="" style="rounded=0;whiteSpace=wrap;html=1;fontSize=12;fontStyle=1;verticalAlign=middle;fontFamily=Tahoma;" parent="1" vertex="1">
                    <mxGeometry x="200" y="640" width="40" height="40" as="geometry"/>
                </mxCell>
                <mxCell id="244" value="" style="ellipse;whiteSpace=wrap;html=1;fontSize=12;fontStyle=1;verticalAlign=middle;fontFamily=Tahoma;" parent="1" vertex="1">
                    <mxGeometry x="215" y="655" width="10" height="10" as="geometry"/>
                </mxCell>
                <mxCell id="245" value="" style="rounded=0;whiteSpace=wrap;html=1;fontSize=12;fontStyle=1;verticalAlign=middle;fontFamily=Tahoma;" parent="1" vertex="1">
                    <mxGeometry x="280" y="640" width="80" height="40" as="geometry"/>
                </mxCell>
                <mxCell id="246" value="" style="rounded=0;whiteSpace=wrap;html=1;fontSize=12;fontStyle=1;verticalAlign=middle;fontFamily=Tahoma;" parent="1" vertex="1">
                    <mxGeometry x="280" y="640" width="40" height="40" as="geometry"/>
                </mxCell>
                <mxCell id="247" value="" style="rounded=0;whiteSpace=wrap;html=1;fontSize=12;fontStyle=1;verticalAlign=middle;fontFamily=Tahoma;" parent="1" vertex="1">
                    <mxGeometry x="280" y="640" width="80" height="40" as="geometry"/>
                </mxCell>
                <mxCell id="248" style="edgeStyle=orthogonalEdgeStyle;html=1;fontSize=12;fontStyle=1;verticalAlign=middle;fontFamily=Tahoma;" parent="1" source="249" target="253" edge="1">
                    <mxGeometry relative="1" as="geometry"/>
                </mxCell>
                <mxCell id="249" value="" style="rounded=0;whiteSpace=wrap;html=1;fontSize=12;fontStyle=1;verticalAlign=middle;fontFamily=Tahoma;" parent="1" vertex="1">
                    <mxGeometry x="320" y="640" width="40" height="40" as="geometry"/>
                </mxCell>
                <mxCell id="250" value="" style="ellipse;whiteSpace=wrap;html=1;fillColor=#1A1A1A;fontSize=12;fontStyle=1;verticalAlign=middle;fontFamily=Tahoma;" parent="1" vertex="1">
                    <mxGeometry x="335" y="655" width="10" height="10" as="geometry"/>
                </mxCell>
                <mxCell id="251" value="" style="rounded=0;whiteSpace=wrap;html=1;fontSize=12;fontStyle=1;verticalAlign=middle;fontFamily=Tahoma;" parent="1" vertex="1">
                    <mxGeometry x="400" y="640" width="80" height="40" as="geometry"/>
                </mxCell>
                <mxCell id="252" value="" style="rounded=0;whiteSpace=wrap;html=1;fontSize=12;fontStyle=1;verticalAlign=middle;fontFamily=Tahoma;" parent="1" vertex="1">
                    <mxGeometry x="400" y="640" width="40" height="40" as="geometry"/>
                </mxCell>
                <mxCell id="253" value="" style="rounded=0;whiteSpace=wrap;html=1;fontSize=12;fontStyle=1;verticalAlign=middle;fontFamily=Tahoma;" parent="1" vertex="1">
                    <mxGeometry x="400" y="640" width="80" height="40" as="geometry"/>
                </mxCell>
                <mxCell id="254" style="edgeStyle=orthogonalEdgeStyle;html=1;entryX=0;entryY=0.5;entryDx=0;entryDy=0;fontSize=12;fontStyle=1;verticalAlign=middle;fontFamily=Tahoma;" parent="1" source="255" edge="1">
                    <mxGeometry relative="1" as="geometry">
                        <mxPoint x="520" y="660" as="targetPoint"/>
                    </mxGeometry>
                </mxCell>
                <mxCell id="255" value="" style="rounded=0;whiteSpace=wrap;html=1;fontSize=12;fontStyle=1;verticalAlign=middle;fontFamily=Tahoma;" parent="1" vertex="1">
                    <mxGeometry x="440" y="640" width="40" height="40" as="geometry"/>
                </mxCell>
                <mxCell id="256" value="" style="ellipse;whiteSpace=wrap;html=1;fillColor=#1A1A1A;fontSize=12;fontStyle=1;verticalAlign=middle;fontFamily=Tahoma;" parent="1" vertex="1">
                    <mxGeometry x="455" y="655" width="10" height="10" as="geometry"/>
                </mxCell>
                <mxCell id="261" value="" style="rounded=0;whiteSpace=wrap;html=1;fontSize=12;fontStyle=1;verticalAlign=middle;fontFamily=Tahoma;" parent="1" vertex="1">
                    <mxGeometry x="260" y="700" width="80" height="40" as="geometry"/>
                </mxCell>
                <mxCell id="262" value="'Q" style="rounded=0;whiteSpace=wrap;html=1;fontSize=12;fontStyle=1;verticalAlign=middle;fontFamily=Tahoma;" parent="1" vertex="1">
                    <mxGeometry x="260" y="700" width="40" height="40" as="geometry"/>
                </mxCell>
                <mxCell id="263" value="λ" style="rounded=0;whiteSpace=wrap;html=1;fontSize=12;fontStyle=1;verticalAlign=middle;fontFamily=Tahoma;" parent="1" vertex="1">
                    <mxGeometry x="300" y="700" width="40" height="40" as="geometry"/>
                </mxCell>
                <mxCell id="264" value="" style="rounded=0;whiteSpace=wrap;html=1;fontSize=12;fontStyle=1;verticalAlign=middle;fontFamily=Tahoma;" parent="1" vertex="1">
                    <mxGeometry x="380" y="700" width="80" height="40" as="geometry"/>
                </mxCell>
                <mxCell id="265" value="'R" style="rounded=0;whiteSpace=wrap;html=1;fontSize=12;fontStyle=1;verticalAlign=middle;fontFamily=Tahoma;" parent="1" vertex="1">
                    <mxGeometry x="380" y="700" width="40" height="40" as="geometry"/>
                </mxCell>
                <mxCell id="266" value="λ" style="rounded=0;whiteSpace=wrap;html=1;fontSize=12;fontStyle=1;verticalAlign=middle;fontFamily=Tahoma;" parent="1" vertex="1">
                    <mxGeometry x="420" y="700" width="40" height="40" as="geometry"/>
                </mxCell>
                <mxCell id="270" style="edgeStyle=orthogonalEdgeStyle;html=1;entryX=0;entryY=0;entryDx=0;entryDy=0;fontSize=12;fontStyle=1;verticalAlign=middle;fontFamily=Tahoma;" parent="1" source="271" target="263" edge="1">
                    <mxGeometry relative="1" as="geometry"/>
                </mxCell>
                <mxCell id="271" value="" style="rounded=0;whiteSpace=wrap;html=1;fontSize=12;fontStyle=1;verticalAlign=middle;fontFamily=Tahoma;" parent="1" vertex="1">
                    <mxGeometry x="280" y="640" width="40" height="40" as="geometry"/>
                </mxCell>
                <mxCell id="272" value="" style="ellipse;whiteSpace=wrap;html=1;fillColor=#1A1A1A;fontSize=12;fontStyle=1;verticalAlign=middle;fontFamily=Tahoma;" parent="1" vertex="1">
                    <mxGeometry x="295" y="655" width="10" height="10" as="geometry"/>
                </mxCell>
                <mxCell id="273" value="" style="rounded=0;whiteSpace=wrap;html=1;fontSize=12;fontStyle=1;verticalAlign=middle;fontFamily=Tahoma;" parent="1" vertex="1">
                    <mxGeometry x="400" y="640" width="40" height="40" as="geometry"/>
                </mxCell>
                <mxCell id="274" style="edgeStyle=orthogonalEdgeStyle;html=1;entryX=0;entryY=0;entryDx=0;entryDy=0;fontSize=12;fontStyle=1;verticalAlign=middle;fontFamily=Tahoma;" parent="1" source="275" target="266" edge="1">
                    <mxGeometry relative="1" as="geometry"/>
                </mxCell>
                <mxCell id="275" value="" style="rounded=0;whiteSpace=wrap;html=1;fontSize=12;fontStyle=1;verticalAlign=middle;fontFamily=Tahoma;" parent="1" vertex="1">
                    <mxGeometry x="400" y="640" width="40" height="40" as="geometry"/>
                </mxCell>
                <mxCell id="276" value="" style="ellipse;whiteSpace=wrap;html=1;fillColor=#1A1A1A;fontSize=12;fontStyle=1;verticalAlign=middle;fontFamily=Tahoma;" parent="1" vertex="1">
                    <mxGeometry x="415" y="655" width="10" height="10" as="geometry"/>
                </mxCell>
                <mxCell id="284" value="" style="ellipse;whiteSpace=wrap;html=1;fillColor=#1A1A1A;fontSize=12;fontStyle=1;verticalAlign=middle;fontFamily=Tahoma;" parent="1" vertex="1">
                    <mxGeometry x="195" y="595" width="10" height="10" as="geometry"/>
                </mxCell>
                <mxCell id="285" value="" style="ellipse;whiteSpace=wrap;html=1;fillColor=#1A1A1A;fontSize=12;fontStyle=1;verticalAlign=middle;fontFamily=Tahoma;" parent="1" vertex="1">
                    <mxGeometry x="175" y="655" width="10" height="10" as="geometry"/>
                </mxCell>
                <mxCell id="286" value="" style="ellipse;whiteSpace=wrap;html=1;fillColor=#1A1A1A;fontSize=12;fontStyle=1;verticalAlign=middle;fontFamily=Tahoma;" parent="1" vertex="1">
                    <mxGeometry x="215" y="655" width="10" height="10" as="geometry"/>
                </mxCell>
                <mxCell id="287" value="'Z" style="rounded=0;whiteSpace=wrap;html=1;fontSize=12;fontStyle=1;verticalAlign=middle;fontFamily=Tahoma;" parent="1" vertex="1">
                    <mxGeometry x="140" y="700" width="40" height="40" as="geometry"/>
                </mxCell>
                <mxCell id="288" value="'Z" style="rounded=0;whiteSpace=wrap;html=1;fontSize=12;fontStyle=1;verticalAlign=middle;fontFamily=Tahoma;" parent="1" vertex="1">
                    <mxGeometry x="260" y="540" width="40" height="40" as="geometry"/>
                </mxCell>
                <mxCell id="289" value="'Q" style="rounded=0;whiteSpace=wrap;html=1;fontSize=12;fontStyle=1;verticalAlign=middle;fontFamily=Tahoma;" parent="1" vertex="1">
                    <mxGeometry x="380" y="540" width="40" height="40" as="geometry"/>
                </mxCell>
                <mxCell id="290" value="'Q" style="rounded=0;whiteSpace=wrap;html=1;fontSize=12;fontStyle=1;verticalAlign=middle;fontFamily=Tahoma;" parent="1" vertex="1">
                    <mxGeometry x="260" y="700" width="40" height="40" as="geometry"/>
                </mxCell>
                <mxCell id="291" value="'R" style="rounded=0;whiteSpace=wrap;html=1;fontSize=12;fontStyle=1;verticalAlign=middle;fontFamily=Tahoma;" parent="1" vertex="1">
                    <mxGeometry x="380" y="700" width="40" height="40" as="geometry"/>
                </mxCell>
                <mxCell id="292" value="'R" style="rounded=0;whiteSpace=wrap;html=1;fontSize=12;fontStyle=1;verticalAlign=middle;fontFamily=Tahoma;" parent="1" vertex="1">
                    <mxGeometry x="500" y="540" width="40" height="40" as="geometry"/>
                </mxCell>
                <mxCell id="293" value="'Z" style="rounded=0;whiteSpace=wrap;html=1;fontSize=17;fontStyle=1;verticalAlign=middle;fontFamily=Tahoma;" parent="1" vertex="1">
                    <mxGeometry x="140" y="700" width="40" height="40" as="geometry"/>
                </mxCell>
                <mxCell id="294" value="'Z" style="rounded=0;whiteSpace=wrap;html=1;fontSize=17;fontStyle=1;verticalAlign=middle;fontFamily=Tahoma;" parent="1" vertex="1">
                    <mxGeometry x="260" y="540" width="40" height="40" as="geometry"/>
                </mxCell>
                <mxCell id="295" value="'Q" style="rounded=0;whiteSpace=wrap;html=1;fontSize=17;fontStyle=1;verticalAlign=middle;fontFamily=Tahoma;" parent="1" vertex="1">
                    <mxGeometry x="380" y="540" width="40" height="40" as="geometry"/>
                </mxCell>
                <mxCell id="296" value="'Q" style="rounded=0;whiteSpace=wrap;html=1;fontSize=17;fontStyle=1;verticalAlign=middle;fontFamily=Tahoma;" parent="1" vertex="1">
                    <mxGeometry x="260" y="700" width="40" height="40" as="geometry"/>
                </mxCell>
                <mxCell id="297" value="'R" style="rounded=0;whiteSpace=wrap;html=1;fontSize=17;fontStyle=1;verticalAlign=middle;fontFamily=Tahoma;" parent="1" vertex="1">
                    <mxGeometry x="380" y="700" width="40" height="40" as="geometry"/>
                </mxCell>
                <mxCell id="298" value="'R" style="rounded=0;whiteSpace=wrap;html=1;fontSize=17;fontStyle=1;verticalAlign=middle;fontFamily=Tahoma;" parent="1" vertex="1">
                    <mxGeometry x="500" y="540" width="40" height="40" as="geometry"/>
                </mxCell>
                <mxCell id="300" value="'Z" style="rounded=0;whiteSpace=wrap;html=1;fontSize=17;fontStyle=1;verticalAlign=middle;fontFamily=Tahoma;" parent="1" vertex="1">
                    <mxGeometry x="380" y="380" width="40" height="40" as="geometry"/>
                </mxCell>
                <mxCell id="301" value="'Q" style="rounded=0;whiteSpace=wrap;html=1;fontSize=17;fontStyle=1;verticalAlign=middle;fontFamily=Tahoma;" parent="1" vertex="1">
                    <mxGeometry x="500" y="380" width="40" height="40" as="geometry"/>
                </mxCell>
                <mxCell id="302" value="'R" style="rounded=0;whiteSpace=wrap;html=1;fontSize=17;fontStyle=1;verticalAlign=middle;fontFamily=Tahoma;" parent="1" vertex="1">
                    <mxGeometry x="620" y="380" width="40" height="40" as="geometry"/>
                </mxCell>
                <mxCell id="304" value="'R" style="rounded=0;whiteSpace=wrap;html=1;fontSize=17;fontStyle=1;verticalAlign=middle;fontFamily=Tahoma;" parent="1" vertex="1">
                    <mxGeometry x="740" y="220" width="40" height="40" as="geometry"/>
                </mxCell>
                <mxCell id="305" value="'Q" style="rounded=0;whiteSpace=wrap;html=1;fontSize=17;fontStyle=1;verticalAlign=middle;fontFamily=Tahoma;" parent="1" vertex="1">
                    <mxGeometry x="620" y="220" width="40" height="40" as="geometry"/>
                </mxCell>
                <mxCell id="306" value="'Z" style="rounded=0;whiteSpace=wrap;html=1;fontSize=17;fontStyle=1;verticalAlign=middle;fontFamily=Tahoma;" parent="1" vertex="1">
                    <mxGeometry x="500" y="220" width="40" height="40" as="geometry"/>
                </mxCell>
                <mxCell id="307" value="λ" style="rounded=0;whiteSpace=wrap;html=1;fontSize=12;fontStyle=1;verticalAlign=middle;fontFamily=Tahoma;" parent="1" vertex="1">
                    <mxGeometry x="540" y="220" width="40" height="40" as="geometry"/>
                </mxCell>
                <mxCell id="308" value="λ" style="rounded=0;whiteSpace=wrap;html=1;fontSize=12;fontStyle=1;verticalAlign=middle;fontFamily=Tahoma;" parent="1" vertex="1">
                    <mxGeometry x="300" y="540" width="40" height="40" as="geometry"/>
                </mxCell>
                <mxCell id="309" value="λ" style="rounded=0;whiteSpace=wrap;html=1;fontSize=17;fontStyle=1;verticalAlign=middle;fontFamily=Tahoma;" parent="1" vertex="1">
                    <mxGeometry x="540" y="220" width="40" height="40" as="geometry"/>
                </mxCell>
                <mxCell id="310" value="λ" style="rounded=0;whiteSpace=wrap;html=1;fontSize=17;fontStyle=1;verticalAlign=middle;fontFamily=Tahoma;" parent="1" vertex="1">
                    <mxGeometry x="300" y="540" width="40" height="40" as="geometry"/>
                </mxCell>
                <mxCell id="311" value="λ" style="rounded=0;whiteSpace=wrap;html=1;fontSize=17;fontStyle=1;verticalAlign=middle;fontFamily=Tahoma;" parent="1" vertex="1">
                    <mxGeometry x="300" y="700" width="40" height="40" as="geometry"/>
                </mxCell>
                <mxCell id="312" value="λ" style="rounded=0;whiteSpace=wrap;html=1;fontSize=17;fontStyle=1;verticalAlign=middle;fontFamily=Tahoma;" parent="1" vertex="1">
                    <mxGeometry x="180" y="700" width="40" height="40" as="geometry"/>
                </mxCell>
                <mxCell id="313" value="λ" style="rounded=0;whiteSpace=wrap;html=1;fontSize=17;fontStyle=1;verticalAlign=middle;fontFamily=Tahoma;" parent="1" vertex="1">
                    <mxGeometry x="420" y="700" width="40" height="40" as="geometry"/>
                </mxCell>
                <mxCell id="315" value="λ" style="rounded=0;whiteSpace=wrap;html=1;fontSize=17;fontStyle=1;verticalAlign=middle;fontFamily=Tahoma;" parent="1" vertex="1">
                    <mxGeometry x="420" y="540" width="40" height="40" as="geometry"/>
                </mxCell>
                <mxCell id="316" value="λ" style="rounded=0;whiteSpace=wrap;html=1;fontSize=17;fontStyle=1;verticalAlign=middle;fontFamily=Tahoma;" parent="1" vertex="1">
                    <mxGeometry x="540" y="540" width="40" height="40" as="geometry"/>
                </mxCell>
                <mxCell id="319" value="λ" style="rounded=0;whiteSpace=wrap;html=1;fontSize=17;fontStyle=1;verticalAlign=middle;fontFamily=Tahoma;" parent="1" vertex="1">
                    <mxGeometry x="660" y="380" width="40" height="40" as="geometry"/>
                </mxCell>
                <mxCell id="320" value="" style="rounded=0;whiteSpace=wrap;html=1;fontSize=12;fontStyle=1;verticalAlign=middle;fontFamily=Tahoma;" parent="1" vertex="1">
                    <mxGeometry x="1000" y="160" width="80" height="40" as="geometry"/>
                </mxCell>
                <mxCell id="321" value="" style="rounded=0;whiteSpace=wrap;html=1;fontSize=12;fontStyle=1;verticalAlign=middle;fontFamily=Tahoma;" parent="1" vertex="1">
                    <mxGeometry x="1000" y="160" width="40" height="40" as="geometry"/>
                </mxCell>
                <mxCell id="322" value="" style="rounded=0;whiteSpace=wrap;html=1;fontSize=12;fontStyle=1;verticalAlign=middle;fontFamily=Tahoma;" parent="1" vertex="1">
                    <mxGeometry x="1000" y="160" width="80" height="40" as="geometry"/>
                </mxCell>
                <mxCell id="323" value="" style="rounded=0;whiteSpace=wrap;html=1;fontSize=12;fontStyle=1;verticalAlign=middle;fontFamily=Tahoma;" parent="1" vertex="1">
                    <mxGeometry x="1040" y="160" width="40" height="40" as="geometry"/>
                </mxCell>
                <mxCell id="324" value="" style="rounded=0;whiteSpace=wrap;html=1;fontSize=12;fontStyle=1;verticalAlign=middle;fontFamily=Tahoma;" parent="1" vertex="1">
                    <mxGeometry x="980" y="220" width="80" height="40" as="geometry"/>
                </mxCell>
                <mxCell id="325" value="'P" style="rounded=0;whiteSpace=wrap;html=1;fontSize=17;fontStyle=1;verticalAlign=middle;fontFamily=Tahoma;" parent="1" vertex="1">
                    <mxGeometry x="980" y="220" width="40" height="40" as="geometry"/>
                </mxCell>
                <mxCell id="326" value="λ" style="rounded=0;whiteSpace=wrap;html=1;fontSize=17;fontStyle=1;verticalAlign=middle;fontFamily=Tahoma;" parent="1" vertex="1">
                    <mxGeometry x="1020" y="220" width="40" height="40" as="geometry"/>
                </mxCell>
                <mxCell id="327" value="" style="rounded=0;whiteSpace=wrap;html=1;fontSize=12;fontStyle=1;verticalAlign=middle;fontFamily=Tahoma;" parent="1" vertex="1">
                    <mxGeometry x="1000" y="160" width="40" height="40" as="geometry"/>
                </mxCell>
                <mxCell id="328" style="edgeStyle=orthogonalEdgeStyle;html=1;entryX=0;entryY=0;entryDx=0;entryDy=0;fontSize=12;fontStyle=1;verticalAlign=middle;fontFamily=Tahoma;" parent="1" target="326" edge="1">
                    <mxGeometry relative="1" as="geometry">
                        <mxPoint x="1020" y="184.9999999999999" as="sourcePoint"/>
                    </mxGeometry>
                </mxCell>
                <mxCell id="329" value="" style="rounded=0;whiteSpace=wrap;html=1;fontSize=12;fontStyle=1;verticalAlign=middle;fontFamily=Tahoma;" parent="1" vertex="1">
                    <mxGeometry x="1000" y="160" width="40" height="40" as="geometry"/>
                </mxCell>
                <mxCell id="330" value="" style="ellipse;whiteSpace=wrap;html=1;strokeColor=#000000;fillColor=#1A1A1A;fontSize=12;fontStyle=1;verticalAlign=middle;fontFamily=Tahoma;" parent="1" vertex="1">
                    <mxGeometry x="1015" y="175" width="10" height="10" as="geometry"/>
                </mxCell>
                <mxCell id="331" value="" style="endArrow=none;html=1;fontSize=12;fontStyle=1;verticalAlign=middle;fontFamily=Tahoma;" parent="1" edge="1">
                    <mxGeometry width="50" height="50" relative="1" as="geometry">
                        <mxPoint x="1040" y="200" as="sourcePoint"/>
                        <mxPoint x="1080" y="160" as="targetPoint"/>
                    </mxGeometry>
                </mxCell>
                <mxCell id="333" value="" style="ellipse;whiteSpace=wrap;html=1;strokeColor=#000000;fillColor=#1A1A1A;fontSize=12;fontStyle=1;verticalAlign=middle;fontFamily=Tahoma;" parent="1" vertex="1">
                    <mxGeometry x="935" y="175" width="10" height="10" as="geometry"/>
                </mxCell>
                <mxCell id="358" value="" style="rounded=0;whiteSpace=wrap;html=1;fontSize=12;fontStyle=1;verticalAlign=middle;fontFamily=Tahoma;" parent="1" vertex="1">
                    <mxGeometry x="760" y="320" width="80" height="40" as="geometry"/>
                </mxCell>
                <mxCell id="359" value="" style="rounded=0;whiteSpace=wrap;html=1;fontSize=12;fontStyle=1;verticalAlign=middle;fontFamily=Tahoma;" parent="1" vertex="1">
                    <mxGeometry x="760" y="320" width="40" height="40" as="geometry"/>
                </mxCell>
                <mxCell id="360" value="" style="rounded=0;whiteSpace=wrap;html=1;fontSize=12;fontStyle=1;verticalAlign=middle;fontFamily=Tahoma;" parent="1" vertex="1">
                    <mxGeometry x="760" y="320" width="80" height="40" as="geometry"/>
                </mxCell>
                <mxCell id="361" style="edgeStyle=none;html=1;" parent="1" source="362" target="379" edge="1">
                    <mxGeometry relative="1" as="geometry"/>
                </mxCell>
                <mxCell id="362" value="" style="rounded=0;whiteSpace=wrap;html=1;fontSize=12;fontStyle=1;verticalAlign=middle;fontFamily=Tahoma;" parent="1" vertex="1">
                    <mxGeometry x="800" y="320" width="40" height="40" as="geometry"/>
                </mxCell>
                <mxCell id="363" value="" style="rounded=0;whiteSpace=wrap;html=1;fontSize=12;fontStyle=1;verticalAlign=middle;fontFamily=Tahoma;" parent="1" vertex="1">
                    <mxGeometry x="740" y="380" width="80" height="40" as="geometry"/>
                </mxCell>
                <mxCell id="364" value="'C" style="rounded=0;whiteSpace=wrap;html=1;fontSize=17;fontStyle=1;verticalAlign=middle;fontFamily=Tahoma;" parent="1" vertex="1">
                    <mxGeometry x="740" y="380" width="40" height="40" as="geometry"/>
                </mxCell>
                <mxCell id="365" value="λ" style="rounded=0;whiteSpace=wrap;html=1;fontSize=17;fontStyle=1;verticalAlign=middle;fontFamily=Tahoma;" parent="1" vertex="1">
                    <mxGeometry x="780" y="380" width="40" height="40" as="geometry"/>
                </mxCell>
                <mxCell id="366" value="" style="rounded=0;whiteSpace=wrap;html=1;fontSize=12;fontStyle=1;verticalAlign=middle;fontFamily=Tahoma;" parent="1" vertex="1">
                    <mxGeometry x="760" y="320" width="40" height="40" as="geometry"/>
                </mxCell>
                <mxCell id="367" style="edgeStyle=orthogonalEdgeStyle;html=1;entryX=0;entryY=0;entryDx=0;entryDy=0;fontSize=12;fontStyle=1;verticalAlign=middle;fontFamily=Tahoma;" parent="1" target="365" edge="1">
                    <mxGeometry relative="1" as="geometry">
                        <mxPoint x="779.9999999999998" y="344.9999999999999" as="sourcePoint"/>
                    </mxGeometry>
                </mxCell>
                <mxCell id="368" value="" style="rounded=0;whiteSpace=wrap;html=1;fontSize=12;fontStyle=1;verticalAlign=middle;fontFamily=Tahoma;" parent="1" vertex="1">
                    <mxGeometry x="760" y="320" width="40" height="40" as="geometry"/>
                </mxCell>
                <mxCell id="369" value="" style="ellipse;whiteSpace=wrap;html=1;strokeColor=#000000;fillColor=#1A1A1A;fontSize=12;fontStyle=1;verticalAlign=middle;fontFamily=Tahoma;" parent="1" vertex="1">
                    <mxGeometry x="775" y="335" width="10" height="10" as="geometry"/>
                </mxCell>
                <mxCell id="370" value="" style="rounded=0;whiteSpace=wrap;html=1;fontSize=12;fontStyle=1;verticalAlign=middle;fontFamily=Tahoma;" parent="1" vertex="1">
                    <mxGeometry x="880" y="320" width="80" height="40" as="geometry"/>
                </mxCell>
                <mxCell id="371" value="" style="rounded=0;whiteSpace=wrap;html=1;fontSize=12;fontStyle=1;verticalAlign=middle;fontFamily=Tahoma;" parent="1" vertex="1">
                    <mxGeometry x="880" y="320" width="40" height="40" as="geometry"/>
                </mxCell>
                <mxCell id="372" value="" style="rounded=0;whiteSpace=wrap;html=1;fontSize=12;fontStyle=1;verticalAlign=middle;fontFamily=Tahoma;" parent="1" vertex="1">
                    <mxGeometry x="880" y="320" width="80" height="40" as="geometry"/>
                </mxCell>
                <mxCell id="373" value="" style="rounded=0;whiteSpace=wrap;html=1;fontSize=12;fontStyle=1;verticalAlign=middle;fontFamily=Tahoma;" parent="1" vertex="1">
                    <mxGeometry x="920" y="320" width="40" height="40" as="geometry"/>
                </mxCell>
                <mxCell id="374" value="" style="rounded=0;whiteSpace=wrap;html=1;fontSize=12;fontStyle=1;verticalAlign=middle;fontFamily=Tahoma;" parent="1" vertex="1">
                    <mxGeometry x="860" y="380" width="80" height="40" as="geometry"/>
                </mxCell>
                <mxCell id="375" value="'P" style="rounded=0;whiteSpace=wrap;html=1;fontSize=17;fontStyle=1;verticalAlign=middle;fontFamily=Tahoma;" parent="1" vertex="1">
                    <mxGeometry x="860" y="380" width="40" height="40" as="geometry"/>
                </mxCell>
                <mxCell id="376" value="λ" style="rounded=0;whiteSpace=wrap;html=1;fontSize=17;fontStyle=1;verticalAlign=middle;fontFamily=Tahoma;" parent="1" vertex="1">
                    <mxGeometry x="900" y="380" width="40" height="40" as="geometry"/>
                </mxCell>
                <mxCell id="377" value="" style="rounded=0;whiteSpace=wrap;html=1;fontSize=12;fontStyle=1;verticalAlign=middle;fontFamily=Tahoma;" parent="1" vertex="1">
                    <mxGeometry x="880" y="320" width="40" height="40" as="geometry"/>
                </mxCell>
                <mxCell id="378" style="edgeStyle=orthogonalEdgeStyle;html=1;entryX=0;entryY=0;entryDx=0;entryDy=0;fontSize=12;fontStyle=1;verticalAlign=middle;fontFamily=Tahoma;" parent="1" target="376" edge="1">
                    <mxGeometry relative="1" as="geometry">
                        <mxPoint x="900" y="344.9999999999999" as="sourcePoint"/>
                    </mxGeometry>
                </mxCell>
                <mxCell id="379" value="" style="rounded=0;whiteSpace=wrap;html=1;fontSize=12;fontStyle=1;verticalAlign=middle;fontFamily=Tahoma;" parent="1" vertex="1">
                    <mxGeometry x="880" y="320" width="40" height="40" as="geometry"/>
                </mxCell>
                <mxCell id="380" value="" style="ellipse;whiteSpace=wrap;html=1;strokeColor=#000000;fillColor=#1A1A1A;fontSize=12;fontStyle=1;verticalAlign=middle;fontFamily=Tahoma;" parent="1" vertex="1">
                    <mxGeometry x="895" y="335" width="10" height="10" as="geometry"/>
                </mxCell>
                <mxCell id="381" value="" style="endArrow=none;html=1;fontSize=12;fontStyle=1;verticalAlign=middle;fontFamily=Tahoma;" parent="1" edge="1">
                    <mxGeometry width="50" height="50" relative="1" as="geometry">
                        <mxPoint x="920" y="360.0000000000001" as="sourcePoint"/>
                        <mxPoint x="960" y="320" as="targetPoint"/>
                    </mxGeometry>
                </mxCell>
                <mxCell id="382" value="" style="ellipse;whiteSpace=wrap;html=1;strokeColor=#000000;fillColor=#1A1A1A;fontSize=12;fontStyle=1;verticalAlign=middle;fontFamily=Tahoma;" parent="1" vertex="1">
                    <mxGeometry x="815" y="335" width="10" height="10" as="geometry"/>
                </mxCell>
                <mxCell id="383" value="" style="rounded=0;whiteSpace=wrap;html=1;fontSize=12;fontStyle=1;verticalAlign=middle;fontFamily=Tahoma;" parent="1" vertex="1">
                    <mxGeometry x="640" y="480" width="80" height="40" as="geometry"/>
                </mxCell>
                <mxCell id="384" value="" style="rounded=0;whiteSpace=wrap;html=1;fontSize=12;fontStyle=1;verticalAlign=middle;fontFamily=Tahoma;" parent="1" vertex="1">
                    <mxGeometry x="640" y="480" width="40" height="40" as="geometry"/>
                </mxCell>
                <mxCell id="385" value="" style="rounded=0;whiteSpace=wrap;html=1;fontSize=12;fontStyle=1;verticalAlign=middle;fontFamily=Tahoma;" parent="1" vertex="1">
                    <mxGeometry x="640" y="480" width="80" height="40" as="geometry"/>
                </mxCell>
                <mxCell id="386" style="edgeStyle=none;html=1;" parent="1" source="387" target="404" edge="1">
                    <mxGeometry relative="1" as="geometry"/>
                </mxCell>
                <mxCell id="387" value="" style="rounded=0;whiteSpace=wrap;html=1;fontSize=12;fontStyle=1;verticalAlign=middle;fontFamily=Tahoma;" parent="1" vertex="1">
                    <mxGeometry x="680" y="480" width="40" height="40" as="geometry"/>
                </mxCell>
                <mxCell id="388" value="" style="rounded=0;whiteSpace=wrap;html=1;fontSize=12;fontStyle=1;verticalAlign=middle;fontFamily=Tahoma;" parent="1" vertex="1">
                    <mxGeometry x="620" y="540" width="80" height="40" as="geometry"/>
                </mxCell>
                <mxCell id="389" value="'C" style="rounded=0;whiteSpace=wrap;html=1;fontSize=17;fontStyle=1;verticalAlign=middle;fontFamily=Tahoma;" parent="1" vertex="1">
                    <mxGeometry x="620" y="540" width="40" height="40" as="geometry"/>
                </mxCell>
                <mxCell id="390" value="λ" style="rounded=0;whiteSpace=wrap;html=1;fontSize=17;fontStyle=1;verticalAlign=middle;fontFamily=Tahoma;" parent="1" vertex="1">
                    <mxGeometry x="660" y="540" width="40" height="40" as="geometry"/>
                </mxCell>
                <mxCell id="391" value="" style="rounded=0;whiteSpace=wrap;html=1;fontSize=12;fontStyle=1;verticalAlign=middle;fontFamily=Tahoma;" parent="1" vertex="1">
                    <mxGeometry x="640" y="480" width="40" height="40" as="geometry"/>
                </mxCell>
                <mxCell id="392" style="edgeStyle=orthogonalEdgeStyle;html=1;entryX=0;entryY=0;entryDx=0;entryDy=0;fontSize=12;fontStyle=1;verticalAlign=middle;fontFamily=Tahoma;" parent="1" target="390" edge="1">
                    <mxGeometry relative="1" as="geometry">
                        <mxPoint x="659.9999999999998" y="504.9999999999999" as="sourcePoint"/>
                    </mxGeometry>
                </mxCell>
                <mxCell id="393" value="" style="rounded=0;whiteSpace=wrap;html=1;fontSize=12;fontStyle=1;verticalAlign=middle;fontFamily=Tahoma;" parent="1" vertex="1">
                    <mxGeometry x="640" y="480" width="40" height="40" as="geometry"/>
                </mxCell>
                <mxCell id="394" value="" style="ellipse;whiteSpace=wrap;html=1;strokeColor=#000000;fillColor=#1A1A1A;fontSize=12;fontStyle=1;verticalAlign=middle;fontFamily=Tahoma;" parent="1" vertex="1">
                    <mxGeometry x="655" y="495" width="10" height="10" as="geometry"/>
                </mxCell>
                <mxCell id="395" value="" style="rounded=0;whiteSpace=wrap;html=1;fontSize=12;fontStyle=1;verticalAlign=middle;fontFamily=Tahoma;" parent="1" vertex="1">
                    <mxGeometry x="760" y="480" width="80" height="40" as="geometry"/>
                </mxCell>
                <mxCell id="396" value="" style="rounded=0;whiteSpace=wrap;html=1;fontSize=12;fontStyle=1;verticalAlign=middle;fontFamily=Tahoma;" parent="1" vertex="1">
                    <mxGeometry x="760" y="480" width="40" height="40" as="geometry"/>
                </mxCell>
                <mxCell id="397" value="" style="rounded=0;whiteSpace=wrap;html=1;fontSize=12;fontStyle=1;verticalAlign=middle;fontFamily=Tahoma;" parent="1" vertex="1">
                    <mxGeometry x="760" y="480" width="80" height="40" as="geometry"/>
                </mxCell>
                <mxCell id="398" value="" style="rounded=0;whiteSpace=wrap;html=1;fontSize=12;fontStyle=1;verticalAlign=middle;fontFamily=Tahoma;" parent="1" vertex="1">
                    <mxGeometry x="800" y="480" width="40" height="40" as="geometry"/>
                </mxCell>
                <mxCell id="399" value="" style="rounded=0;whiteSpace=wrap;html=1;fontSize=12;fontStyle=1;verticalAlign=middle;fontFamily=Tahoma;" parent="1" vertex="1">
                    <mxGeometry x="740" y="540" width="80" height="40" as="geometry"/>
                </mxCell>
                <mxCell id="400" value="'P" style="rounded=0;whiteSpace=wrap;html=1;fontSize=17;fontStyle=1;verticalAlign=middle;fontFamily=Tahoma;" parent="1" vertex="1">
                    <mxGeometry x="740" y="540" width="40" height="40" as="geometry"/>
                </mxCell>
                <mxCell id="401" value="λ" style="rounded=0;whiteSpace=wrap;html=1;fontSize=17;fontStyle=1;verticalAlign=middle;fontFamily=Tahoma;" parent="1" vertex="1">
                    <mxGeometry x="780" y="540" width="40" height="40" as="geometry"/>
                </mxCell>
                <mxCell id="402" value="" style="rounded=0;whiteSpace=wrap;html=1;fontSize=12;fontStyle=1;verticalAlign=middle;fontFamily=Tahoma;" parent="1" vertex="1">
                    <mxGeometry x="760" y="480" width="40" height="40" as="geometry"/>
                </mxCell>
                <mxCell id="403" style="edgeStyle=orthogonalEdgeStyle;html=1;entryX=0;entryY=0;entryDx=0;entryDy=0;fontSize=12;fontStyle=1;verticalAlign=middle;fontFamily=Tahoma;" parent="1" target="401" edge="1">
                    <mxGeometry relative="1" as="geometry">
                        <mxPoint x="779.9999999999998" y="504.9999999999999" as="sourcePoint"/>
                    </mxGeometry>
                </mxCell>
                <mxCell id="404" value="" style="rounded=0;whiteSpace=wrap;html=1;fontSize=12;fontStyle=1;verticalAlign=middle;fontFamily=Tahoma;" parent="1" vertex="1">
                    <mxGeometry x="760" y="480" width="40" height="40" as="geometry"/>
                </mxCell>
                <mxCell id="405" value="" style="ellipse;whiteSpace=wrap;html=1;strokeColor=#000000;fillColor=#1A1A1A;fontSize=12;fontStyle=1;verticalAlign=middle;fontFamily=Tahoma;" parent="1" vertex="1">
                    <mxGeometry x="775" y="495" width="10" height="10" as="geometry"/>
                </mxCell>
                <mxCell id="406" value="" style="endArrow=none;html=1;fontSize=12;fontStyle=1;verticalAlign=middle;fontFamily=Tahoma;" parent="1" edge="1">
                    <mxGeometry width="50" height="50" relative="1" as="geometry">
                        <mxPoint x="799.9999999999998" y="520" as="sourcePoint"/>
                        <mxPoint x="839.9999999999998" y="480.0000000000001" as="targetPoint"/>
                    </mxGeometry>
                </mxCell>
                <mxCell id="407" value="" style="ellipse;whiteSpace=wrap;html=1;strokeColor=#000000;fillColor=#1A1A1A;fontSize=12;fontStyle=1;verticalAlign=middle;fontFamily=Tahoma;" parent="1" vertex="1">
                    <mxGeometry x="695" y="495" width="10" height="10" as="geometry"/>
                </mxCell>
                <mxCell id="408" value="" style="rounded=0;whiteSpace=wrap;html=1;fontSize=12;fontStyle=1;verticalAlign=middle;fontFamily=Tahoma;" parent="1" vertex="1">
                    <mxGeometry x="520" y="640" width="80" height="40" as="geometry"/>
                </mxCell>
                <mxCell id="409" value="" style="rounded=0;whiteSpace=wrap;html=1;fontSize=12;fontStyle=1;verticalAlign=middle;fontFamily=Tahoma;" parent="1" vertex="1">
                    <mxGeometry x="520" y="640" width="40" height="40" as="geometry"/>
                </mxCell>
                <mxCell id="410" value="" style="rounded=0;whiteSpace=wrap;html=1;fontSize=12;fontStyle=1;verticalAlign=middle;fontFamily=Tahoma;" parent="1" vertex="1">
                    <mxGeometry x="520" y="640" width="80" height="40" as="geometry"/>
                </mxCell>
                <mxCell id="411" style="edgeStyle=none;html=1;" parent="1" source="412" target="429" edge="1">
                    <mxGeometry relative="1" as="geometry"/>
                </mxCell>
                <mxCell id="412" value="" style="rounded=0;whiteSpace=wrap;html=1;fontSize=12;fontStyle=1;verticalAlign=middle;fontFamily=Tahoma;" parent="1" vertex="1">
                    <mxGeometry x="560" y="640" width="40" height="40" as="geometry"/>
                </mxCell>
                <mxCell id="413" value="" style="rounded=0;whiteSpace=wrap;html=1;fontSize=12;fontStyle=1;verticalAlign=middle;fontFamily=Tahoma;" parent="1" vertex="1">
                    <mxGeometry x="500" y="700" width="80" height="40" as="geometry"/>
                </mxCell>
                <mxCell id="414" value="'C" style="rounded=0;whiteSpace=wrap;html=1;fontSize=17;fontStyle=1;verticalAlign=middle;fontFamily=Tahoma;" parent="1" vertex="1">
                    <mxGeometry x="500" y="700" width="40" height="40" as="geometry"/>
                </mxCell>
                <mxCell id="415" value="λ" style="rounded=0;whiteSpace=wrap;html=1;fontSize=17;fontStyle=1;verticalAlign=middle;fontFamily=Tahoma;" parent="1" vertex="1">
                    <mxGeometry x="540" y="700" width="40" height="40" as="geometry"/>
                </mxCell>
                <mxCell id="416" value="" style="rounded=0;whiteSpace=wrap;html=1;fontSize=12;fontStyle=1;verticalAlign=middle;fontFamily=Tahoma;" parent="1" vertex="1">
                    <mxGeometry x="520" y="640" width="40" height="40" as="geometry"/>
                </mxCell>
                <mxCell id="417" style="edgeStyle=orthogonalEdgeStyle;html=1;entryX=0;entryY=0;entryDx=0;entryDy=0;fontSize=12;fontStyle=1;verticalAlign=middle;fontFamily=Tahoma;" parent="1" target="415" edge="1">
                    <mxGeometry relative="1" as="geometry">
                        <mxPoint x="539.9999999999998" y="665" as="sourcePoint"/>
                    </mxGeometry>
                </mxCell>
                <mxCell id="418" value="" style="rounded=0;whiteSpace=wrap;html=1;fontSize=12;fontStyle=1;verticalAlign=middle;fontFamily=Tahoma;" parent="1" vertex="1">
                    <mxGeometry x="520" y="640" width="40" height="40" as="geometry"/>
                </mxCell>
                <mxCell id="419" value="" style="ellipse;whiteSpace=wrap;html=1;strokeColor=#000000;fillColor=#1A1A1A;fontSize=12;fontStyle=1;verticalAlign=middle;fontFamily=Tahoma;" parent="1" vertex="1">
                    <mxGeometry x="535" y="655" width="10" height="10" as="geometry"/>
                </mxCell>
                <mxCell id="420" value="" style="rounded=0;whiteSpace=wrap;html=1;fontSize=12;fontStyle=1;verticalAlign=middle;fontFamily=Tahoma;" parent="1" vertex="1">
                    <mxGeometry x="640" y="640" width="80" height="40" as="geometry"/>
                </mxCell>
                <mxCell id="421" value="" style="rounded=0;whiteSpace=wrap;html=1;fontSize=12;fontStyle=1;verticalAlign=middle;fontFamily=Tahoma;" parent="1" vertex="1">
                    <mxGeometry x="640" y="640" width="40" height="40" as="geometry"/>
                </mxCell>
                <mxCell id="422" value="" style="rounded=0;whiteSpace=wrap;html=1;fontSize=12;fontStyle=1;verticalAlign=middle;fontFamily=Tahoma;" parent="1" vertex="1">
                    <mxGeometry x="640" y="640" width="80" height="40" as="geometry"/>
                </mxCell>
                <mxCell id="423" value="" style="rounded=0;whiteSpace=wrap;html=1;fontSize=12;fontStyle=1;verticalAlign=middle;fontFamily=Tahoma;" parent="1" vertex="1">
                    <mxGeometry x="680" y="640" width="40" height="40" as="geometry"/>
                </mxCell>
                <mxCell id="424" value="" style="rounded=0;whiteSpace=wrap;html=1;fontSize=12;fontStyle=1;verticalAlign=middle;fontFamily=Tahoma;" parent="1" vertex="1">
                    <mxGeometry x="620" y="700" width="80" height="40" as="geometry"/>
                </mxCell>
                <mxCell id="425" value="'P" style="rounded=0;whiteSpace=wrap;html=1;fontSize=17;fontStyle=1;verticalAlign=middle;fontFamily=Tahoma;" parent="1" vertex="1">
                    <mxGeometry x="620" y="700" width="40" height="40" as="geometry"/>
                </mxCell>
                <mxCell id="426" value="λ" style="rounded=0;whiteSpace=wrap;html=1;fontSize=17;fontStyle=1;verticalAlign=middle;fontFamily=Tahoma;" parent="1" vertex="1">
                    <mxGeometry x="660" y="700" width="40" height="40" as="geometry"/>
                </mxCell>
                <mxCell id="427" value="" style="rounded=0;whiteSpace=wrap;html=1;fontSize=12;fontStyle=1;verticalAlign=middle;fontFamily=Tahoma;" parent="1" vertex="1">
                    <mxGeometry x="640" y="640" width="40" height="40" as="geometry"/>
                </mxCell>
                <mxCell id="428" style="edgeStyle=orthogonalEdgeStyle;html=1;entryX=0;entryY=0;entryDx=0;entryDy=0;fontSize=12;fontStyle=1;verticalAlign=middle;fontFamily=Tahoma;" parent="1" target="426" edge="1">
                    <mxGeometry relative="1" as="geometry">
                        <mxPoint x="659.9999999999998" y="665" as="sourcePoint"/>
                    </mxGeometry>
                </mxCell>
                <mxCell id="429" value="" style="rounded=0;whiteSpace=wrap;html=1;fontSize=12;fontStyle=1;verticalAlign=middle;fontFamily=Tahoma;" parent="1" vertex="1">
                    <mxGeometry x="640" y="640" width="40" height="40" as="geometry"/>
                </mxCell>
                <mxCell id="430" value="" style="ellipse;whiteSpace=wrap;html=1;strokeColor=#000000;fillColor=#1A1A1A;fontSize=12;fontStyle=1;verticalAlign=middle;fontFamily=Tahoma;" parent="1" vertex="1">
                    <mxGeometry x="655" y="655" width="10" height="10" as="geometry"/>
                </mxCell>
                <mxCell id="431" value="" style="endArrow=none;html=1;fontSize=12;fontStyle=1;verticalAlign=middle;fontFamily=Tahoma;" parent="1" edge="1">
                    <mxGeometry width="50" height="50" relative="1" as="geometry">
                        <mxPoint x="679.9999999999998" y="680" as="sourcePoint"/>
                        <mxPoint x="719.9999999999998" y="640" as="targetPoint"/>
                    </mxGeometry>
                </mxCell>
                <mxCell id="432" value="" style="ellipse;whiteSpace=wrap;html=1;strokeColor=#000000;fillColor=#1A1A1A;fontSize=12;fontStyle=1;verticalAlign=middle;fontFamily=Tahoma;" parent="1" vertex="1">
                    <mxGeometry x="575" y="655" width="10" height="10" as="geometry"/>
                </mxCell>
                <mxCell id="772" value="" style="rounded=0;whiteSpace=wrap;html=1;fontSize=12;fontStyle=1;verticalAlign=middle;fontFamily=Tahoma;" parent="1" vertex="1">
                    <mxGeometry x="-200" y="-440" width="80" height="40" as="geometry"/>
                </mxCell>
                <mxCell id="773" value="add" style="rounded=0;whiteSpace=wrap;html=1;fontSize=15;fontStyle=1;verticalAlign=middle;fontFamily=Tahoma;" parent="1" vertex="1">
                    <mxGeometry x="-200" y="-440" width="40" height="40" as="geometry"/>
                </mxCell>
                <mxCell id="774" style="edgeStyle=orthogonalEdgeStyle;html=1;entryX=0;entryY=0;entryDx=0;entryDy=0;fontSize=12;fontStyle=1;verticalAlign=middle;fontFamily=Tahoma;" parent="1" source="775" target="941" edge="1">
                    <mxGeometry relative="1" as="geometry"/>
                </mxCell>
                <mxCell id="775" value="" style="rounded=0;whiteSpace=wrap;html=1;fontSize=12;fontStyle=1;verticalAlign=middle;fontFamily=Tahoma;" parent="1" vertex="1">
                    <mxGeometry x="-160" y="-440" width="40" height="40" as="geometry"/>
                </mxCell>
                <mxCell id="776" value="" style="ellipse;whiteSpace=wrap;html=1;fontSize=12;fontStyle=1;verticalAlign=middle;fontFamily=Tahoma;" parent="1" vertex="1">
                    <mxGeometry x="-145" y="-425" width="10" height="10" as="geometry"/>
                </mxCell>
                <mxCell id="932" value="" style="rounded=0;whiteSpace=wrap;html=1;fontSize=12;fontStyle=1;verticalAlign=middle;fontFamily=Tahoma;" parent="1" vertex="1">
                    <mxGeometry x="-180" y="-380" width="80" height="40" as="geometry"/>
                </mxCell>
                <mxCell id="933" style="edgeStyle=none;html=1;entryX=0;entryY=0;entryDx=0;entryDy=0;fontSize=12;fontStyle=1;verticalAlign=middle;fontFamily=Tahoma;" parent="1" target="939" edge="1">
                    <mxGeometry relative="1" as="geometry">
                        <mxPoint x="-160" y="-340" as="sourcePoint"/>
                    </mxGeometry>
                </mxCell>
                <mxCell id="934" value="" style="rounded=0;whiteSpace=wrap;html=1;fontSize=12;fontStyle=1;verticalAlign=middle;fontFamily=Tahoma;" parent="1" vertex="1">
                    <mxGeometry x="-180" y="-380" width="40" height="40" as="geometry"/>
                </mxCell>
                <mxCell id="935" value="" style="rounded=0;whiteSpace=wrap;html=1;fontSize=12;fontStyle=1;verticalAlign=middle;fontFamily=Tahoma;" parent="1" vertex="1">
                    <mxGeometry x="-180" y="-380" width="80" height="40" as="geometry"/>
                </mxCell>
                <mxCell id="936" value="" style="ellipse;whiteSpace=wrap;html=1;fontSize=12;fontStyle=1;verticalAlign=middle;fontFamily=Tahoma;" parent="1" vertex="1">
                    <mxGeometry x="-165" y="-365" width="10" height="10" as="geometry"/>
                </mxCell>
                <mxCell id="937" value="" style="rounded=0;whiteSpace=wrap;html=1;fontSize=12;fontStyle=1;verticalAlign=middle;fontFamily=Tahoma;" parent="1" vertex="1">
                    <mxGeometry x="-200" y="-320" width="80" height="40" as="geometry"/>
                </mxCell>
                <mxCell id="938" value="'Z" style="rounded=0;whiteSpace=wrap;html=1;fontSize=12;fontStyle=1;verticalAlign=middle;fontFamily=Tahoma;" parent="1" vertex="1">
                    <mxGeometry x="-200" y="-320" width="40" height="40" as="geometry"/>
                </mxCell>
                <mxCell id="939" value="λ" style="rounded=0;whiteSpace=wrap;html=1;fontSize=12;fontStyle=1;verticalAlign=middle;fontFamily=Tahoma;" parent="1" vertex="1">
                    <mxGeometry x="-160" y="-320" width="40" height="40" as="geometry"/>
                </mxCell>
                <mxCell id="940" style="edgeStyle=orthogonalEdgeStyle;html=1;entryX=0;entryY=0.5;entryDx=0;entryDy=0;fontSize=12;fontStyle=1;verticalAlign=middle;fontFamily=Tahoma;" parent="1" source="941" target="945" edge="1">
                    <mxGeometry relative="1" as="geometry"/>
                </mxCell>
                <mxCell id="941" value="" style="rounded=0;whiteSpace=wrap;html=1;fontSize=12;fontStyle=1;verticalAlign=middle;fontFamily=Tahoma;" parent="1" vertex="1">
                    <mxGeometry x="-140" y="-380" width="40" height="40" as="geometry"/>
                </mxCell>
                <mxCell id="942" value="" style="ellipse;whiteSpace=wrap;html=1;fontSize=12;fontStyle=1;verticalAlign=middle;fontFamily=Tahoma;" parent="1" vertex="1">
                    <mxGeometry x="-125" y="-365" width="10" height="10" as="geometry"/>
                </mxCell>
                <mxCell id="943" value="" style="rounded=0;whiteSpace=wrap;html=1;fontSize=12;fontStyle=1;verticalAlign=middle;fontFamily=Tahoma;" parent="1" vertex="1">
                    <mxGeometry x="-60" y="-380" width="80" height="40" as="geometry"/>
                </mxCell>
                <mxCell id="944" value="" style="rounded=0;whiteSpace=wrap;html=1;fontSize=12;fontStyle=1;verticalAlign=middle;fontFamily=Tahoma;" parent="1" vertex="1">
                    <mxGeometry x="-60" y="-380" width="40" height="40" as="geometry"/>
                </mxCell>
                <mxCell id="945" value="" style="rounded=0;whiteSpace=wrap;html=1;fontSize=12;fontStyle=1;verticalAlign=middle;fontFamily=Tahoma;" parent="1" vertex="1">
                    <mxGeometry x="-60" y="-380" width="80" height="40" as="geometry"/>
                </mxCell>
                <mxCell id="946" style="edgeStyle=orthogonalEdgeStyle;html=1;fontSize=12;fontStyle=1;verticalAlign=middle;fontFamily=Tahoma;" parent="1" source="947" target="951" edge="1">
                    <mxGeometry relative="1" as="geometry"/>
                </mxCell>
                <mxCell id="947" value="" style="rounded=0;whiteSpace=wrap;html=1;fontSize=12;fontStyle=1;verticalAlign=middle;fontFamily=Tahoma;" parent="1" vertex="1">
                    <mxGeometry x="-20" y="-380" width="40" height="40" as="geometry"/>
                </mxCell>
                <mxCell id="948" value="" style="ellipse;whiteSpace=wrap;html=1;fillColor=#1A1A1A;fontSize=12;fontStyle=1;verticalAlign=middle;fontFamily=Tahoma;" parent="1" vertex="1">
                    <mxGeometry x="-5" y="-365" width="10" height="10" as="geometry"/>
                </mxCell>
                <mxCell id="949" value="" style="rounded=0;whiteSpace=wrap;html=1;fontSize=12;fontStyle=1;verticalAlign=middle;fontFamily=Tahoma;" parent="1" vertex="1">
                    <mxGeometry x="60" y="-380" width="80" height="40" as="geometry"/>
                </mxCell>
                <mxCell id="950" value="" style="rounded=0;whiteSpace=wrap;html=1;fontSize=12;fontStyle=1;verticalAlign=middle;fontFamily=Tahoma;" parent="1" vertex="1">
                    <mxGeometry x="60" y="-380" width="40" height="40" as="geometry"/>
                </mxCell>
                <mxCell id="951" value="" style="rounded=0;whiteSpace=wrap;html=1;fontSize=12;fontStyle=1;verticalAlign=middle;fontFamily=Tahoma;" parent="1" vertex="1">
                    <mxGeometry x="60" y="-380" width="80" height="40" as="geometry"/>
                </mxCell>
                <mxCell id="952" style="edgeStyle=orthogonalEdgeStyle;html=1;entryX=0;entryY=0.5;entryDx=0;entryDy=0;fontSize=12;fontStyle=1;verticalAlign=middle;fontFamily=Tahoma;" parent="1" source="953" edge="1">
                    <mxGeometry relative="1" as="geometry">
                        <mxPoint x="180" y="-360" as="targetPoint"/>
                    </mxGeometry>
                </mxCell>
                <mxCell id="953" value="" style="rounded=0;whiteSpace=wrap;html=1;fontSize=12;fontStyle=1;verticalAlign=middle;fontFamily=Tahoma;" parent="1" vertex="1">
                    <mxGeometry x="100" y="-380" width="40" height="40" as="geometry"/>
                </mxCell>
                <mxCell id="954" value="" style="ellipse;whiteSpace=wrap;html=1;fillColor=#1A1A1A;fontSize=12;fontStyle=1;verticalAlign=middle;fontFamily=Tahoma;" parent="1" vertex="1">
                    <mxGeometry x="115" y="-365" width="10" height="10" as="geometry"/>
                </mxCell>
                <mxCell id="955" value="" style="rounded=0;whiteSpace=wrap;html=1;fontSize=12;fontStyle=1;verticalAlign=middle;fontFamily=Tahoma;" parent="1" vertex="1">
                    <mxGeometry x="-80" y="-320" width="80" height="40" as="geometry"/>
                </mxCell>
                <mxCell id="956" value="'Q" style="rounded=0;whiteSpace=wrap;html=1;fontSize=12;fontStyle=1;verticalAlign=middle;fontFamily=Tahoma;" parent="1" vertex="1">
                    <mxGeometry x="-80" y="-320" width="40" height="40" as="geometry"/>
                </mxCell>
                <mxCell id="957" value="λ" style="rounded=0;whiteSpace=wrap;html=1;fontSize=12;fontStyle=1;verticalAlign=middle;fontFamily=Tahoma;" parent="1" vertex="1">
                    <mxGeometry x="-40" y="-320" width="40" height="40" as="geometry"/>
                </mxCell>
                <mxCell id="958" value="" style="rounded=0;whiteSpace=wrap;html=1;fontSize=12;fontStyle=1;verticalAlign=middle;fontFamily=Tahoma;" parent="1" vertex="1">
                    <mxGeometry x="40" y="-320" width="80" height="40" as="geometry"/>
                </mxCell>
                <mxCell id="959" value="'R" style="rounded=0;whiteSpace=wrap;html=1;fontSize=12;fontStyle=1;verticalAlign=middle;fontFamily=Tahoma;" parent="1" vertex="1">
                    <mxGeometry x="40" y="-320" width="40" height="40" as="geometry"/>
                </mxCell>
                <mxCell id="960" value="λ" style="rounded=0;whiteSpace=wrap;html=1;fontSize=12;fontStyle=1;verticalAlign=middle;fontFamily=Tahoma;" parent="1" vertex="1">
                    <mxGeometry x="80" y="-320" width="40" height="40" as="geometry"/>
                </mxCell>
                <mxCell id="961" style="edgeStyle=orthogonalEdgeStyle;html=1;entryX=0;entryY=0;entryDx=0;entryDy=0;fontSize=12;fontStyle=1;verticalAlign=middle;fontFamily=Tahoma;" parent="1" source="962" target="957" edge="1">
                    <mxGeometry relative="1" as="geometry"/>
                </mxCell>
                <mxCell id="962" value="" style="rounded=0;whiteSpace=wrap;html=1;fontSize=12;fontStyle=1;verticalAlign=middle;fontFamily=Tahoma;" parent="1" vertex="1">
                    <mxGeometry x="-60" y="-380" width="40" height="40" as="geometry"/>
                </mxCell>
                <mxCell id="963" value="" style="ellipse;whiteSpace=wrap;html=1;fillColor=#1A1A1A;fontSize=12;fontStyle=1;verticalAlign=middle;fontFamily=Tahoma;" parent="1" vertex="1">
                    <mxGeometry x="-45" y="-365" width="10" height="10" as="geometry"/>
                </mxCell>
                <mxCell id="964" value="" style="rounded=0;whiteSpace=wrap;html=1;fontSize=12;fontStyle=1;verticalAlign=middle;fontFamily=Tahoma;" parent="1" vertex="1">
                    <mxGeometry x="60" y="-380" width="40" height="40" as="geometry"/>
                </mxCell>
                <mxCell id="965" style="edgeStyle=orthogonalEdgeStyle;html=1;entryX=0;entryY=0;entryDx=0;entryDy=0;fontSize=12;fontStyle=1;verticalAlign=middle;fontFamily=Tahoma;" parent="1" source="966" target="960" edge="1">
                    <mxGeometry relative="1" as="geometry"/>
                </mxCell>
                <mxCell id="966" value="" style="rounded=0;whiteSpace=wrap;html=1;fontSize=12;fontStyle=1;verticalAlign=middle;fontFamily=Tahoma;" parent="1" vertex="1">
                    <mxGeometry x="60" y="-380" width="40" height="40" as="geometry"/>
                </mxCell>
                <mxCell id="967" value="" style="ellipse;whiteSpace=wrap;html=1;fillColor=#1A1A1A;fontSize=12;fontStyle=1;verticalAlign=middle;fontFamily=Tahoma;" parent="1" vertex="1">
                    <mxGeometry x="75" y="-365" width="10" height="10" as="geometry"/>
                </mxCell>
                <mxCell id="968" value="" style="ellipse;whiteSpace=wrap;html=1;fillColor=#1A1A1A;fontSize=12;fontStyle=1;verticalAlign=middle;fontFamily=Tahoma;" parent="1" vertex="1">
                    <mxGeometry x="-145" y="-425" width="10" height="10" as="geometry"/>
                </mxCell>
                <mxCell id="969" value="" style="ellipse;whiteSpace=wrap;html=1;fillColor=#1A1A1A;fontSize=12;fontStyle=1;verticalAlign=middle;fontFamily=Tahoma;" parent="1" vertex="1">
                    <mxGeometry x="-165" y="-365" width="10" height="10" as="geometry"/>
                </mxCell>
                <mxCell id="970" value="" style="ellipse;whiteSpace=wrap;html=1;fillColor=#1A1A1A;fontSize=12;fontStyle=1;verticalAlign=middle;fontFamily=Tahoma;" parent="1" vertex="1">
                    <mxGeometry x="-125" y="-365" width="10" height="10" as="geometry"/>
                </mxCell>
                <mxCell id="971" value="'Z" style="rounded=0;whiteSpace=wrap;html=1;fontSize=12;fontStyle=1;verticalAlign=middle;fontFamily=Tahoma;" parent="1" vertex="1">
                    <mxGeometry x="-200" y="-320" width="40" height="40" as="geometry"/>
                </mxCell>
                <mxCell id="974" value="'Q" style="rounded=0;whiteSpace=wrap;html=1;fontSize=12;fontStyle=1;verticalAlign=middle;fontFamily=Tahoma;" parent="1" vertex="1">
                    <mxGeometry x="-80" y="-320" width="40" height="40" as="geometry"/>
                </mxCell>
                <mxCell id="975" value="'R" style="rounded=0;whiteSpace=wrap;html=1;fontSize=12;fontStyle=1;verticalAlign=middle;fontFamily=Tahoma;" parent="1" vertex="1">
                    <mxGeometry x="40" y="-320" width="40" height="40" as="geometry"/>
                </mxCell>
                <mxCell id="977" value="Z" style="rounded=0;whiteSpace=wrap;html=1;fontSize=17;fontStyle=1;verticalAlign=middle;fontFamily=Tahoma;" parent="1" vertex="1">
                    <mxGeometry x="-200" y="-320" width="40" height="40" as="geometry"/>
                </mxCell>
                <mxCell id="980" value="Q" style="rounded=0;whiteSpace=wrap;html=1;fontSize=17;fontStyle=1;verticalAlign=middle;fontFamily=Tahoma;" parent="1" vertex="1">
                    <mxGeometry x="-80" y="-320" width="40" height="40" as="geometry"/>
                </mxCell>
                <mxCell id="981" value="R" style="rounded=0;whiteSpace=wrap;html=1;fontSize=17;fontStyle=1;verticalAlign=middle;fontFamily=Tahoma;" parent="1" vertex="1">
                    <mxGeometry x="40" y="-320" width="40" height="40" as="geometry"/>
                </mxCell>
                <mxCell id="993" value="λ" style="rounded=0;whiteSpace=wrap;html=1;fontSize=17;fontStyle=1;verticalAlign=middle;fontFamily=Tahoma;" parent="1" vertex="1">
                    <mxGeometry x="-40" y="-320" width="40" height="40" as="geometry"/>
                </mxCell>
                <mxCell id="994" value="λ" style="rounded=0;whiteSpace=wrap;html=1;fontSize=17;fontStyle=1;verticalAlign=middle;fontFamily=Tahoma;" parent="1" vertex="1">
                    <mxGeometry x="-160" y="-320" width="40" height="40" as="geometry"/>
                </mxCell>
                <mxCell id="995" value="λ" style="rounded=0;whiteSpace=wrap;html=1;fontSize=17;fontStyle=1;verticalAlign=middle;fontFamily=Tahoma;" parent="1" vertex="1">
                    <mxGeometry x="80" y="-320" width="40" height="40" as="geometry"/>
                </mxCell>
                <mxCell id="1062" value="" style="rounded=0;whiteSpace=wrap;html=1;fontSize=12;fontStyle=1;verticalAlign=middle;fontFamily=Tahoma;" parent="1" vertex="1">
                    <mxGeometry x="180" y="-380" width="80" height="40" as="geometry"/>
                </mxCell>
                <mxCell id="1063" value="" style="rounded=0;whiteSpace=wrap;html=1;fontSize=12;fontStyle=1;verticalAlign=middle;fontFamily=Tahoma;" parent="1" vertex="1">
                    <mxGeometry x="180" y="-380" width="40" height="40" as="geometry"/>
                </mxCell>
                <mxCell id="1064" value="" style="rounded=0;whiteSpace=wrap;html=1;fontSize=12;fontStyle=1;verticalAlign=middle;fontFamily=Tahoma;" parent="1" vertex="1">
                    <mxGeometry x="180" y="-380" width="80" height="40" as="geometry"/>
                </mxCell>
                <mxCell id="1065" style="edgeStyle=none;html=1;" parent="1" source="1066" target="1083" edge="1">
                    <mxGeometry relative="1" as="geometry"/>
                </mxCell>
                <mxCell id="1066" value="" style="rounded=0;whiteSpace=wrap;html=1;fontSize=12;fontStyle=1;verticalAlign=middle;fontFamily=Tahoma;" parent="1" vertex="1">
                    <mxGeometry x="220" y="-380" width="40" height="40" as="geometry"/>
                </mxCell>
                <mxCell id="1067" value="" style="rounded=0;whiteSpace=wrap;html=1;fontSize=12;fontStyle=1;verticalAlign=middle;fontFamily=Tahoma;" parent="1" vertex="1">
                    <mxGeometry x="160" y="-320" width="80" height="40" as="geometry"/>
                </mxCell>
                <mxCell id="1068" value="C" style="rounded=0;whiteSpace=wrap;html=1;fontSize=17;fontStyle=1;verticalAlign=middle;fontFamily=Tahoma;" parent="1" vertex="1">
                    <mxGeometry x="160" y="-320" width="40" height="40" as="geometry"/>
                </mxCell>
                <mxCell id="1069" value="λ" style="rounded=0;whiteSpace=wrap;html=1;fontSize=17;fontStyle=1;verticalAlign=middle;fontFamily=Tahoma;" parent="1" vertex="1">
                    <mxGeometry x="200" y="-320" width="40" height="40" as="geometry"/>
                </mxCell>
                <mxCell id="1070" value="" style="rounded=0;whiteSpace=wrap;html=1;fontSize=12;fontStyle=1;verticalAlign=middle;fontFamily=Tahoma;" parent="1" vertex="1">
                    <mxGeometry x="180" y="-380" width="40" height="40" as="geometry"/>
                </mxCell>
                <mxCell id="1071" style="edgeStyle=orthogonalEdgeStyle;html=1;entryX=0;entryY=0;entryDx=0;entryDy=0;fontSize=12;fontStyle=1;verticalAlign=middle;fontFamily=Tahoma;" parent="1" target="1069" edge="1">
                    <mxGeometry relative="1" as="geometry">
                        <mxPoint x="200" y="-355" as="sourcePoint"/>
                    </mxGeometry>
                </mxCell>
                <mxCell id="1072" value="" style="rounded=0;whiteSpace=wrap;html=1;fontSize=12;fontStyle=1;verticalAlign=middle;fontFamily=Tahoma;" parent="1" vertex="1">
                    <mxGeometry x="180" y="-380" width="40" height="40" as="geometry"/>
                </mxCell>
                <mxCell id="1073" value="" style="ellipse;whiteSpace=wrap;html=1;strokeColor=#000000;fillColor=#1A1A1A;fontSize=12;fontStyle=1;verticalAlign=middle;fontFamily=Tahoma;" parent="1" vertex="1">
                    <mxGeometry x="195" y="-365" width="10" height="10" as="geometry"/>
                </mxCell>
                <mxCell id="1074" value="" style="rounded=0;whiteSpace=wrap;html=1;fontSize=12;fontStyle=1;verticalAlign=middle;fontFamily=Tahoma;" parent="1" vertex="1">
                    <mxGeometry x="300" y="-380" width="80" height="40" as="geometry"/>
                </mxCell>
                <mxCell id="1075" value="" style="rounded=0;whiteSpace=wrap;html=1;fontSize=12;fontStyle=1;verticalAlign=middle;fontFamily=Tahoma;" parent="1" vertex="1">
                    <mxGeometry x="300" y="-380" width="40" height="40" as="geometry"/>
                </mxCell>
                <mxCell id="1076" value="" style="rounded=0;whiteSpace=wrap;html=1;fontSize=12;fontStyle=1;verticalAlign=middle;fontFamily=Tahoma;" parent="1" vertex="1">
                    <mxGeometry x="300" y="-380" width="80" height="40" as="geometry"/>
                </mxCell>
                <mxCell id="1077" value="" style="rounded=0;whiteSpace=wrap;html=1;fontSize=12;fontStyle=1;verticalAlign=middle;fontFamily=Tahoma;" parent="1" vertex="1">
                    <mxGeometry x="340" y="-380" width="40" height="40" as="geometry"/>
                </mxCell>
                <mxCell id="1078" value="" style="rounded=0;whiteSpace=wrap;html=1;fontSize=12;fontStyle=1;verticalAlign=middle;fontFamily=Tahoma;" parent="1" vertex="1">
                    <mxGeometry x="280" y="-320" width="80" height="40" as="geometry"/>
                </mxCell>
                <mxCell id="1079" value="P" style="rounded=0;whiteSpace=wrap;html=1;fontSize=17;fontStyle=1;verticalAlign=middle;fontFamily=Tahoma;" parent="1" vertex="1">
                    <mxGeometry x="280" y="-320" width="40" height="40" as="geometry"/>
                </mxCell>
                <mxCell id="1080" value="λ" style="rounded=0;whiteSpace=wrap;html=1;fontSize=17;fontStyle=1;verticalAlign=middle;fontFamily=Tahoma;" parent="1" vertex="1">
                    <mxGeometry x="320" y="-320" width="40" height="40" as="geometry"/>
                </mxCell>
                <mxCell id="1081" value="" style="rounded=0;whiteSpace=wrap;html=1;fontSize=12;fontStyle=1;verticalAlign=middle;fontFamily=Tahoma;" parent="1" vertex="1">
                    <mxGeometry x="300" y="-380" width="40" height="40" as="geometry"/>
                </mxCell>
                <mxCell id="1082" style="edgeStyle=orthogonalEdgeStyle;html=1;entryX=0;entryY=0;entryDx=0;entryDy=0;fontSize=12;fontStyle=1;verticalAlign=middle;fontFamily=Tahoma;" parent="1" target="1080" edge="1">
                    <mxGeometry relative="1" as="geometry">
                        <mxPoint x="320" y="-355" as="sourcePoint"/>
                    </mxGeometry>
                </mxCell>
                <mxCell id="1083" value="" style="rounded=0;whiteSpace=wrap;html=1;fontSize=12;fontStyle=1;verticalAlign=middle;fontFamily=Tahoma;" parent="1" vertex="1">
                    <mxGeometry x="300" y="-380" width="40" height="40" as="geometry"/>
                </mxCell>
                <mxCell id="1084" value="" style="ellipse;whiteSpace=wrap;html=1;strokeColor=#000000;fillColor=#1A1A1A;fontSize=12;fontStyle=1;verticalAlign=middle;fontFamily=Tahoma;" parent="1" vertex="1">
                    <mxGeometry x="315" y="-365" width="10" height="10" as="geometry"/>
                </mxCell>
                <mxCell id="1086" value="" style="ellipse;whiteSpace=wrap;html=1;strokeColor=#000000;fillColor=#1A1A1A;fontSize=12;fontStyle=1;verticalAlign=middle;fontFamily=Tahoma;" parent="1" vertex="1">
                    <mxGeometry x="235" y="-365" width="10" height="10" as="geometry"/>
                </mxCell>
                <mxCell id="1087" value="" style="rounded=0;whiteSpace=wrap;html=1;fontSize=12;fontStyle=1;verticalAlign=middle;fontFamily=Tahoma;" parent="1" vertex="1">
                    <mxGeometry x="420" y="-380" width="80" height="40" as="geometry"/>
                </mxCell>
                <mxCell id="1088" value="" style="rounded=0;whiteSpace=wrap;html=1;fontSize=12;fontStyle=1;verticalAlign=middle;fontFamily=Tahoma;" parent="1" vertex="1">
                    <mxGeometry x="420" y="-380" width="40" height="40" as="geometry"/>
                </mxCell>
                <mxCell id="1089" value="" style="rounded=0;whiteSpace=wrap;html=1;fontSize=12;fontStyle=1;verticalAlign=middle;fontFamily=Tahoma;" parent="1" vertex="1">
                    <mxGeometry x="420" y="-380" width="80" height="40" as="geometry"/>
                </mxCell>
                <mxCell id="1090" value="" style="rounded=0;whiteSpace=wrap;html=1;fontSize=12;fontStyle=1;verticalAlign=middle;fontFamily=Tahoma;" parent="1" vertex="1">
                    <mxGeometry x="460" y="-380" width="40" height="40" as="geometry"/>
                </mxCell>
                <mxCell id="1091" value="" style="rounded=0;whiteSpace=wrap;html=1;fontSize=12;fontStyle=1;verticalAlign=middle;fontFamily=Tahoma;" parent="1" vertex="1">
                    <mxGeometry x="400" y="-320" width="80" height="40" as="geometry"/>
                </mxCell>
                <mxCell id="1092" value="M" style="rounded=0;whiteSpace=wrap;html=1;fontSize=17;fontStyle=1;verticalAlign=middle;fontFamily=Tahoma;" parent="1" vertex="1">
                    <mxGeometry x="400" y="-320" width="40" height="40" as="geometry"/>
                </mxCell>
                <mxCell id="1093" value="λ" style="rounded=0;whiteSpace=wrap;html=1;fontSize=17;fontStyle=1;verticalAlign=middle;fontFamily=Tahoma;" parent="1" vertex="1">
                    <mxGeometry x="440" y="-320" width="40" height="40" as="geometry"/>
                </mxCell>
                <mxCell id="1094" value="" style="rounded=0;whiteSpace=wrap;html=1;fontSize=12;fontStyle=1;verticalAlign=middle;fontFamily=Tahoma;" parent="1" vertex="1">
                    <mxGeometry x="420" y="-380" width="40" height="40" as="geometry"/>
                </mxCell>
                <mxCell id="1095" style="edgeStyle=orthogonalEdgeStyle;html=1;entryX=0;entryY=0;entryDx=0;entryDy=0;fontSize=12;fontStyle=1;verticalAlign=middle;fontFamily=Tahoma;" parent="1" target="1093" edge="1">
                    <mxGeometry relative="1" as="geometry">
                        <mxPoint x="440" y="-355" as="sourcePoint"/>
                    </mxGeometry>
                </mxCell>
                <mxCell id="1096" value="" style="rounded=0;whiteSpace=wrap;html=1;fontSize=12;fontStyle=1;verticalAlign=middle;fontFamily=Tahoma;" parent="1" vertex="1">
                    <mxGeometry x="420" y="-380" width="40" height="40" as="geometry"/>
                </mxCell>
                <mxCell id="1097" value="" style="ellipse;whiteSpace=wrap;html=1;strokeColor=#000000;fillColor=#1A1A1A;fontSize=12;fontStyle=1;verticalAlign=middle;fontFamily=Tahoma;" parent="1" vertex="1">
                    <mxGeometry x="435" y="-365" width="10" height="10" as="geometry"/>
                </mxCell>
                <mxCell id="1098" value="" style="endArrow=none;html=1;fontSize=12;fontStyle=1;verticalAlign=middle;fontFamily=Tahoma;" parent="1" edge="1">
                    <mxGeometry width="50" height="50" relative="1" as="geometry">
                        <mxPoint x="460" y="-340" as="sourcePoint"/>
                        <mxPoint x="500" y="-380" as="targetPoint"/>
                    </mxGeometry>
                </mxCell>
                <mxCell id="1099" style="edgeStyle=none;html=1;" parent="1" edge="1">
                    <mxGeometry relative="1" as="geometry">
                        <mxPoint x="380" y="-360.42" as="sourcePoint"/>
                        <mxPoint x="420" y="-360.42" as="targetPoint"/>
                    </mxGeometry>
                </mxCell>
                <mxCell id="1100" value="" style="ellipse;whiteSpace=wrap;html=1;strokeColor=#000000;fillColor=#1A1A1A;fontSize=12;fontStyle=1;verticalAlign=middle;fontFamily=Tahoma;" parent="1" vertex="1">
                    <mxGeometry x="355" y="-365" width="10" height="10" as="geometry"/>
                </mxCell>
                <mxCell id="1137" value="" style="rounded=0;whiteSpace=wrap;html=1;fontSize=12;fontStyle=1;verticalAlign=middle;fontFamily=Tahoma;" parent="1" vertex="1">
                    <mxGeometry x="-40" y="-620" width="80" height="40" as="geometry"/>
                </mxCell>
                <mxCell id="1138" value="Z" style="rounded=0;whiteSpace=wrap;html=1;fontSize=15;fontStyle=1;verticalAlign=middle;fontFamily=Tahoma;" parent="1" vertex="1">
                    <mxGeometry x="-40" y="-620" width="40" height="40" as="geometry"/>
                </mxCell>
                <mxCell id="1140" value="&lt;font style=&quot;font-size: 15px;&quot;&gt;2&lt;/font&gt;" style="rounded=0;whiteSpace=wrap;html=1;fontSize=12;fontStyle=1;verticalAlign=middle;fontFamily=Tahoma;" parent="1" vertex="1">
                    <mxGeometry y="-620" width="40" height="40" as="geometry"/>
                </mxCell>
                <mxCell id="1189" value="" style="rounded=0;whiteSpace=wrap;html=1;fontSize=15;fontStyle=1;verticalAlign=middle;fontFamily=Tahoma;" parent="1" vertex="1">
                    <mxGeometry x="80" y="-680" width="80" height="40" as="geometry"/>
                </mxCell>
                <mxCell id="1190" value="Q" style="rounded=0;whiteSpace=wrap;html=1;fontSize=15;fontStyle=1;verticalAlign=middle;fontFamily=Tahoma;" parent="1" vertex="1">
                    <mxGeometry x="80" y="-680" width="40" height="40" as="geometry"/>
                </mxCell>
                <mxCell id="1191" style="edgeStyle=orthogonalEdgeStyle;html=1;entryX=0;entryY=0;entryDx=0;entryDy=0;fontSize=15;fontStyle=1;verticalAlign=middle;fontFamily=Tahoma;" parent="1" source="1192" target="1203" edge="1">
                    <mxGeometry relative="1" as="geometry"/>
                </mxCell>
                <mxCell id="1192" value="" style="rounded=0;whiteSpace=wrap;html=1;fontSize=15;fontStyle=1;verticalAlign=middle;fontFamily=Tahoma;" parent="1" vertex="1">
                    <mxGeometry x="120" y="-680" width="40" height="40" as="geometry"/>
                </mxCell>
                <mxCell id="1193" value="" style="ellipse;whiteSpace=wrap;html=1;fontSize=15;fontStyle=1;verticalAlign=middle;fontFamily=Tahoma;" parent="1" vertex="1">
                    <mxGeometry x="135" y="-665" width="10" height="10" as="geometry"/>
                </mxCell>
                <mxCell id="1194" value="" style="rounded=0;whiteSpace=wrap;html=1;fontSize=15;fontStyle=1;verticalAlign=middle;fontFamily=Tahoma;" parent="1" vertex="1">
                    <mxGeometry x="100" y="-620" width="80" height="40" as="geometry"/>
                </mxCell>
                <mxCell id="1195" style="edgeStyle=none;html=1;entryX=0;entryY=0;entryDx=0;entryDy=0;fontSize=15;fontStyle=1;verticalAlign=middle;fontFamily=Tahoma;" parent="1" target="1201" edge="1">
                    <mxGeometry relative="1" as="geometry">
                        <mxPoint x="120" y="-580" as="sourcePoint"/>
                    </mxGeometry>
                </mxCell>
                <mxCell id="1196" value="" style="rounded=0;whiteSpace=wrap;html=1;fontSize=15;fontStyle=1;verticalAlign=middle;fontFamily=Tahoma;" parent="1" vertex="1">
                    <mxGeometry x="100" y="-620" width="40" height="40" as="geometry"/>
                </mxCell>
                <mxCell id="1197" value="" style="rounded=0;whiteSpace=wrap;html=1;fontSize=15;fontStyle=1;verticalAlign=middle;fontFamily=Tahoma;" parent="1" vertex="1">
                    <mxGeometry x="100" y="-620" width="80" height="40" as="geometry"/>
                </mxCell>
                <mxCell id="1198" value="" style="ellipse;whiteSpace=wrap;html=1;fontSize=15;fontStyle=1;verticalAlign=middle;fontFamily=Tahoma;" parent="1" vertex="1">
                    <mxGeometry x="115" y="-605" width="10" height="10" as="geometry"/>
                </mxCell>
                <mxCell id="1199" value="" style="rounded=0;whiteSpace=wrap;html=1;fontSize=15;fontStyle=1;verticalAlign=middle;fontFamily=Tahoma;" parent="1" vertex="1">
                    <mxGeometry x="80" y="-560" width="80" height="40" as="geometry"/>
                </mxCell>
                <mxCell id="1200" value="'Z" style="rounded=0;whiteSpace=wrap;html=1;fontSize=15;fontStyle=1;verticalAlign=middle;fontFamily=Tahoma;" parent="1" vertex="1">
                    <mxGeometry x="80" y="-560" width="40" height="40" as="geometry"/>
                </mxCell>
                <mxCell id="1201" value="λ" style="rounded=0;whiteSpace=wrap;html=1;fontSize=15;fontStyle=1;verticalAlign=middle;fontFamily=Tahoma;" parent="1" vertex="1">
                    <mxGeometry x="120" y="-560" width="40" height="40" as="geometry"/>
                </mxCell>
                <mxCell id="1202" style="edgeStyle=orthogonalEdgeStyle;html=1;entryX=0;entryY=0.5;entryDx=0;entryDy=0;fontSize=15;fontStyle=1;verticalAlign=middle;fontFamily=Tahoma;" parent="1" source="1203" edge="1">
                    <mxGeometry relative="1" as="geometry">
                        <mxPoint x="220" y="-600" as="targetPoint"/>
                    </mxGeometry>
                </mxCell>
                <mxCell id="1203" value="" style="rounded=0;whiteSpace=wrap;html=1;fontSize=15;fontStyle=1;verticalAlign=middle;fontFamily=Tahoma;" parent="1" vertex="1">
                    <mxGeometry x="140" y="-620" width="40" height="40" as="geometry"/>
                </mxCell>
                <mxCell id="1204" value="" style="ellipse;whiteSpace=wrap;html=1;fontSize=15;fontStyle=1;verticalAlign=middle;fontFamily=Tahoma;" parent="1" vertex="1">
                    <mxGeometry x="155" y="-605" width="10" height="10" as="geometry"/>
                </mxCell>
                <mxCell id="1210" value="" style="rounded=0;whiteSpace=wrap;html=1;fontSize=15;fontStyle=1;verticalAlign=middle;fontFamily=Tahoma;" parent="1" vertex="1">
                    <mxGeometry x="220" y="-620" width="80" height="40" as="geometry"/>
                </mxCell>
                <mxCell id="1211" value="'Q" style="rounded=0;whiteSpace=wrap;html=1;fontSize=15;fontStyle=1;verticalAlign=middle;fontFamily=Tahoma;" parent="1" vertex="1">
                    <mxGeometry x="220" y="-620" width="40" height="40" as="geometry"/>
                </mxCell>
                <mxCell id="1212" value="λ" style="rounded=0;whiteSpace=wrap;html=1;fontSize=15;fontStyle=1;verticalAlign=middle;fontFamily=Tahoma;" parent="1" vertex="1">
                    <mxGeometry x="260" y="-620" width="40" height="40" as="geometry"/>
                </mxCell>
                <mxCell id="1216" value="" style="ellipse;whiteSpace=wrap;html=1;fillColor=#1A1A1A;fontSize=15;fontStyle=1;verticalAlign=middle;fontFamily=Tahoma;" parent="1" vertex="1">
                    <mxGeometry x="135" y="-665" width="10" height="10" as="geometry"/>
                </mxCell>
                <mxCell id="1217" value="" style="ellipse;whiteSpace=wrap;html=1;fillColor=#1A1A1A;fontSize=15;fontStyle=1;verticalAlign=middle;fontFamily=Tahoma;" parent="1" vertex="1">
                    <mxGeometry x="115" y="-605" width="10" height="10" as="geometry"/>
                </mxCell>
                <mxCell id="1218" value="" style="ellipse;whiteSpace=wrap;html=1;fillColor=#1A1A1A;fontSize=15;fontStyle=1;verticalAlign=middle;fontFamily=Tahoma;" parent="1" vertex="1">
                    <mxGeometry x="155" y="-605" width="10" height="10" as="geometry"/>
                </mxCell>
                <mxCell id="1219" value="'Z" style="rounded=0;whiteSpace=wrap;html=1;fontSize=15;fontStyle=1;verticalAlign=middle;fontFamily=Tahoma;" parent="1" vertex="1">
                    <mxGeometry x="80" y="-560" width="40" height="40" as="geometry"/>
                </mxCell>
                <mxCell id="1220" value="'Q" style="rounded=0;whiteSpace=wrap;html=1;fontSize=15;fontStyle=1;verticalAlign=middle;fontFamily=Tahoma;" parent="1" vertex="1">
                    <mxGeometry x="220" y="-620" width="40" height="40" as="geometry"/>
                </mxCell>
                <mxCell id="1221" value="Z" style="rounded=0;whiteSpace=wrap;html=1;fontSize=15;fontStyle=1;verticalAlign=middle;fontFamily=Tahoma;" parent="1" vertex="1">
                    <mxGeometry x="80" y="-560" width="40" height="40" as="geometry"/>
                </mxCell>
                <mxCell id="1222" value="Z" style="rounded=0;whiteSpace=wrap;html=1;fontSize=15;fontStyle=1;verticalAlign=middle;fontFamily=Tahoma;" parent="1" vertex="1">
                    <mxGeometry x="220" y="-620" width="40" height="40" as="geometry"/>
                </mxCell>
                <mxCell id="1223" value="1" style="rounded=0;whiteSpace=wrap;html=1;fontSize=15;fontStyle=1;verticalAlign=middle;fontFamily=Tahoma;" parent="1" vertex="1">
                    <mxGeometry x="260" y="-620" width="40" height="40" as="geometry"/>
                </mxCell>
                <mxCell id="1224" value="2" style="rounded=0;whiteSpace=wrap;html=1;fontSize=15;fontStyle=1;verticalAlign=middle;fontFamily=Tahoma;" parent="1" vertex="1">
                    <mxGeometry x="120" y="-560" width="40" height="40" as="geometry"/>
                </mxCell>
                <mxCell id="1225" value="" style="rounded=0;whiteSpace=wrap;html=1;fontSize=15;fontStyle=1;verticalAlign=middle;fontFamily=Tahoma;" parent="1" vertex="1">
                    <mxGeometry x="360" y="-620" width="80" height="40" as="geometry"/>
                </mxCell>
                <mxCell id="1226" value="R" style="rounded=0;whiteSpace=wrap;html=1;fontSize=15;fontStyle=1;verticalAlign=middle;fontFamily=Tahoma;" parent="1" vertex="1">
                    <mxGeometry x="360" y="-620" width="40" height="40" as="geometry"/>
                </mxCell>
                <mxCell id="1228" value="&lt;font style=&quot;font-size: 15px;&quot;&gt;2.0&lt;/font&gt;" style="rounded=0;whiteSpace=wrap;html=1;fontSize=15;fontStyle=1;verticalAlign=middle;fontFamily=Tahoma;" parent="1" vertex="1">
                    <mxGeometry x="400" y="-620" width="40" height="40" as="geometry"/>
                </mxCell>
                <mxCell id="1261" value="" style="rounded=0;whiteSpace=wrap;html=1;fontSize=15;fontStyle=1;verticalAlign=middle;fontFamily=Tahoma;" parent="1" vertex="1">
                    <mxGeometry x="480" y="-680" width="80" height="40" as="geometry"/>
                </mxCell>
                <mxCell id="1262" value="C" style="rounded=0;whiteSpace=wrap;html=1;fontSize=15;fontStyle=1;verticalAlign=middle;fontFamily=Tahoma;" parent="1" vertex="1">
                    <mxGeometry x="480" y="-680" width="40" height="40" as="geometry"/>
                </mxCell>
                <mxCell id="1263" style="edgeStyle=orthogonalEdgeStyle;html=1;entryX=0;entryY=0;entryDx=0;entryDy=0;fontSize=15;fontStyle=1;verticalAlign=middle;fontFamily=Tahoma;" parent="1" source="1264" target="1275" edge="1">
                    <mxGeometry relative="1" as="geometry"/>
                </mxCell>
                <mxCell id="1264" value="" style="rounded=0;whiteSpace=wrap;html=1;fontSize=15;fontStyle=1;verticalAlign=middle;fontFamily=Tahoma;" parent="1" vertex="1">
                    <mxGeometry x="520" y="-680" width="40" height="40" as="geometry"/>
                </mxCell>
                <mxCell id="1265" value="" style="ellipse;whiteSpace=wrap;html=1;fontSize=15;fontStyle=1;verticalAlign=middle;fontFamily=Tahoma;" parent="1" vertex="1">
                    <mxGeometry x="535" y="-665" width="10" height="10" as="geometry"/>
                </mxCell>
                <mxCell id="1266" value="" style="rounded=0;whiteSpace=wrap;html=1;fontSize=15;fontStyle=1;verticalAlign=middle;fontFamily=Tahoma;" parent="1" vertex="1">
                    <mxGeometry x="500" y="-620" width="80" height="40" as="geometry"/>
                </mxCell>
                <mxCell id="1267" style="edgeStyle=none;html=1;entryX=0;entryY=0;entryDx=0;entryDy=0;fontSize=15;fontStyle=1;verticalAlign=middle;fontFamily=Tahoma;" parent="1" target="1273" edge="1">
                    <mxGeometry relative="1" as="geometry">
                        <mxPoint x="520" y="-580" as="sourcePoint"/>
                    </mxGeometry>
                </mxCell>
                <mxCell id="1268" value="" style="rounded=0;whiteSpace=wrap;html=1;fontSize=15;fontStyle=1;verticalAlign=middle;fontFamily=Tahoma;" parent="1" vertex="1">
                    <mxGeometry x="500" y="-620" width="40" height="40" as="geometry"/>
                </mxCell>
                <mxCell id="1269" value="" style="rounded=0;whiteSpace=wrap;html=1;fontSize=15;fontStyle=1;verticalAlign=middle;fontFamily=Tahoma;" parent="1" vertex="1">
                    <mxGeometry x="500" y="-620" width="80" height="40" as="geometry"/>
                </mxCell>
                <mxCell id="1270" value="" style="ellipse;whiteSpace=wrap;html=1;fontSize=15;fontStyle=1;verticalAlign=middle;fontFamily=Tahoma;" parent="1" vertex="1">
                    <mxGeometry x="515" y="-605" width="10" height="10" as="geometry"/>
                </mxCell>
                <mxCell id="1271" value="" style="rounded=0;whiteSpace=wrap;html=1;fontSize=15;fontStyle=1;verticalAlign=middle;fontFamily=Tahoma;" parent="1" vertex="1">
                    <mxGeometry x="480" y="-560" width="80" height="40" as="geometry"/>
                </mxCell>
                <mxCell id="1272" value="'Z" style="rounded=0;whiteSpace=wrap;html=1;fontSize=15;fontStyle=1;verticalAlign=middle;fontFamily=Tahoma;" parent="1" vertex="1">
                    <mxGeometry x="480" y="-560" width="40" height="40" as="geometry"/>
                </mxCell>
                <mxCell id="1273" value="λ" style="rounded=0;whiteSpace=wrap;html=1;fontSize=15;fontStyle=1;verticalAlign=middle;fontFamily=Tahoma;" parent="1" vertex="1">
                    <mxGeometry x="520" y="-560" width="40" height="40" as="geometry"/>
                </mxCell>
                <mxCell id="1274" style="edgeStyle=orthogonalEdgeStyle;html=1;entryX=0;entryY=0.5;entryDx=0;entryDy=0;fontSize=15;fontStyle=1;verticalAlign=middle;fontFamily=Tahoma;" parent="1" source="1275" edge="1">
                    <mxGeometry relative="1" as="geometry">
                        <mxPoint x="620" y="-600" as="targetPoint"/>
                    </mxGeometry>
                </mxCell>
                <mxCell id="1275" value="" style="rounded=0;whiteSpace=wrap;html=1;fontSize=15;fontStyle=1;verticalAlign=middle;fontFamily=Tahoma;" parent="1" vertex="1">
                    <mxGeometry x="540" y="-620" width="40" height="40" as="geometry"/>
                </mxCell>
                <mxCell id="1276" value="" style="ellipse;whiteSpace=wrap;html=1;fontSize=15;fontStyle=1;verticalAlign=middle;fontFamily=Tahoma;" parent="1" vertex="1">
                    <mxGeometry x="555" y="-605" width="10" height="10" as="geometry"/>
                </mxCell>
                <mxCell id="1282" value="" style="rounded=0;whiteSpace=wrap;html=1;fontSize=15;fontStyle=1;verticalAlign=middle;fontFamily=Tahoma;" parent="1" vertex="1">
                    <mxGeometry x="620" y="-620" width="80" height="40" as="geometry"/>
                </mxCell>
                <mxCell id="1283" value="'Q" style="rounded=0;whiteSpace=wrap;html=1;fontSize=15;fontStyle=1;verticalAlign=middle;fontFamily=Tahoma;" parent="1" vertex="1">
                    <mxGeometry x="620" y="-620" width="40" height="40" as="geometry"/>
                </mxCell>
                <mxCell id="1284" value="λ" style="rounded=0;whiteSpace=wrap;html=1;fontSize=15;fontStyle=1;verticalAlign=middle;fontFamily=Tahoma;" parent="1" vertex="1">
                    <mxGeometry x="660" y="-620" width="40" height="40" as="geometry"/>
                </mxCell>
                <mxCell id="1288" value="" style="ellipse;whiteSpace=wrap;html=1;fillColor=#1A1A1A;fontSize=15;fontStyle=1;verticalAlign=middle;fontFamily=Tahoma;" parent="1" vertex="1">
                    <mxGeometry x="535" y="-665" width="10" height="10" as="geometry"/>
                </mxCell>
                <mxCell id="1289" value="" style="ellipse;whiteSpace=wrap;html=1;fillColor=#1A1A1A;fontSize=15;fontStyle=1;verticalAlign=middle;fontFamily=Tahoma;" parent="1" vertex="1">
                    <mxGeometry x="515" y="-605" width="10" height="10" as="geometry"/>
                </mxCell>
                <mxCell id="1290" value="" style="ellipse;whiteSpace=wrap;html=1;fillColor=#1A1A1A;fontSize=15;fontStyle=1;verticalAlign=middle;fontFamily=Tahoma;" parent="1" vertex="1">
                    <mxGeometry x="555" y="-605" width="10" height="10" as="geometry"/>
                </mxCell>
                <mxCell id="1291" value="'Z" style="rounded=0;whiteSpace=wrap;html=1;fontSize=15;fontStyle=1;verticalAlign=middle;fontFamily=Tahoma;" parent="1" vertex="1">
                    <mxGeometry x="480" y="-560" width="40" height="40" as="geometry"/>
                </mxCell>
                <mxCell id="1292" value="'Q" style="rounded=0;whiteSpace=wrap;html=1;fontSize=15;fontStyle=1;verticalAlign=middle;fontFamily=Tahoma;" parent="1" vertex="1">
                    <mxGeometry x="620" y="-620" width="40" height="40" as="geometry"/>
                </mxCell>
                <mxCell id="1293" value="R" style="rounded=0;whiteSpace=wrap;html=1;fontSize=15;fontStyle=1;verticalAlign=middle;fontFamily=Tahoma;" parent="1" vertex="1">
                    <mxGeometry x="480" y="-560" width="40" height="40" as="geometry"/>
                </mxCell>
                <mxCell id="1294" value="R" style="rounded=0;whiteSpace=wrap;html=1;fontSize=15;fontStyle=1;verticalAlign=middle;fontFamily=Tahoma;" parent="1" vertex="1">
                    <mxGeometry x="620" y="-620" width="40" height="40" as="geometry"/>
                </mxCell>
                <mxCell id="1295" value="0.0" style="rounded=0;whiteSpace=wrap;html=1;fontSize=15;fontStyle=1;verticalAlign=middle;fontFamily=Tahoma;" parent="1" vertex="1">
                    <mxGeometry x="660" y="-620" width="40" height="40" as="geometry"/>
                </mxCell>
                <mxCell id="1296" value="2.0" style="rounded=0;whiteSpace=wrap;html=1;fontSize=15;fontStyle=1;verticalAlign=middle;fontFamily=Tahoma;" parent="1" vertex="1">
                    <mxGeometry x="520" y="-560" width="40" height="40" as="geometry"/>
                </mxCell>
                <mxCell id="1334" value="c" style="rounded=0;whiteSpace=wrap;html=1;fontSize=15;fontStyle=1;verticalAlign=middle;fontFamily=Tahoma;" parent="1" vertex="1">
                    <mxGeometry x="-283" y="-980" width="80" height="40" as="geometry"/>
                </mxCell>
                <mxCell id="1335" value="P" style="rounded=0;whiteSpace=wrap;html=1;fontSize=15;fontStyle=1;verticalAlign=middle;fontFamily=Tahoma;" parent="1" vertex="1">
                    <mxGeometry x="-283" y="-980" width="40" height="40" as="geometry"/>
                </mxCell>
                <mxCell id="1336" style="edgeStyle=orthogonalEdgeStyle;html=1;entryX=0;entryY=0;entryDx=0;entryDy=0;fontSize=15;fontStyle=1;verticalAlign=middle;fontFamily=Tahoma;" parent="1" source="1337" target="1348" edge="1">
                    <mxGeometry relative="1" as="geometry"/>
                </mxCell>
                <mxCell id="1337" value="" style="rounded=0;whiteSpace=wrap;html=1;fontSize=15;fontStyle=1;verticalAlign=middle;fontFamily=Tahoma;" parent="1" vertex="1">
                    <mxGeometry x="-243" y="-980" width="40" height="40" as="geometry"/>
                </mxCell>
                <mxCell id="1338" value="" style="ellipse;whiteSpace=wrap;html=1;fontSize=15;fontStyle=1;verticalAlign=middle;fontFamily=Tahoma;" parent="1" vertex="1">
                    <mxGeometry x="-228" y="-965" width="10" height="10" as="geometry"/>
                </mxCell>
                <mxCell id="1339" value="" style="rounded=0;whiteSpace=wrap;html=1;fontSize=15;fontStyle=1;verticalAlign=middle;fontFamily=Tahoma;" parent="1" vertex="1">
                    <mxGeometry x="-263" y="-920" width="80" height="40" as="geometry"/>
                </mxCell>
                <mxCell id="1341" value="" style="rounded=0;whiteSpace=wrap;html=1;fontSize=15;fontStyle=1;verticalAlign=middle;fontFamily=Tahoma;" parent="1" vertex="1">
                    <mxGeometry x="-263" y="-920" width="40" height="40" as="geometry"/>
                </mxCell>
                <mxCell id="1342" value="" style="rounded=0;whiteSpace=wrap;html=1;fontSize=15;fontStyle=1;verticalAlign=middle;fontFamily=Tahoma;" parent="1" vertex="1">
                    <mxGeometry x="-263" y="-920" width="80" height="40" as="geometry"/>
                </mxCell>
                <mxCell id="1347" style="edgeStyle=orthogonalEdgeStyle;html=1;entryX=0;entryY=0.5;entryDx=0;entryDy=0;fontSize=15;fontStyle=1;verticalAlign=middle;fontFamily=Tahoma;" parent="1" source="1348" target="1352" edge="1">
                    <mxGeometry relative="1" as="geometry"/>
                </mxCell>
                <mxCell id="1348" value="" style="rounded=0;whiteSpace=wrap;html=1;fontSize=15;fontStyle=1;verticalAlign=middle;fontFamily=Tahoma;" parent="1" vertex="1">
                    <mxGeometry x="-223" y="-920" width="40" height="40" as="geometry"/>
                </mxCell>
                <mxCell id="1349" value="" style="ellipse;whiteSpace=wrap;html=1;fontSize=15;fontStyle=1;verticalAlign=middle;fontFamily=Tahoma;" parent="1" vertex="1">
                    <mxGeometry x="-208" y="-905" width="10" height="10" as="geometry"/>
                </mxCell>
                <mxCell id="1350" value="" style="rounded=0;whiteSpace=wrap;html=1;fontSize=15;fontStyle=1;verticalAlign=middle;fontFamily=Tahoma;" parent="1" vertex="1">
                    <mxGeometry x="-143" y="-920" width="80" height="40" as="geometry"/>
                </mxCell>
                <mxCell id="1351" value="" style="rounded=0;whiteSpace=wrap;html=1;fontSize=15;fontStyle=1;verticalAlign=middle;fontFamily=Tahoma;" parent="1" vertex="1">
                    <mxGeometry x="-143" y="-920" width="40" height="40" as="geometry"/>
                </mxCell>
                <mxCell id="1352" value="" style="rounded=0;whiteSpace=wrap;html=1;fontSize=15;fontStyle=1;verticalAlign=middle;fontFamily=Tahoma;" parent="1" vertex="1">
                    <mxGeometry x="-143" y="-920" width="80" height="40" as="geometry"/>
                </mxCell>
                <mxCell id="1353" style="edgeStyle=orthogonalEdgeStyle;html=1;fontSize=15;fontStyle=1;verticalAlign=middle;fontFamily=Tahoma;" parent="1" source="1354" target="1358" edge="1">
                    <mxGeometry relative="1" as="geometry"/>
                </mxCell>
                <mxCell id="1354" value="" style="rounded=0;whiteSpace=wrap;html=1;fontSize=15;fontStyle=1;verticalAlign=middle;fontFamily=Tahoma;" parent="1" vertex="1">
                    <mxGeometry x="-103" y="-920" width="40" height="40" as="geometry"/>
                </mxCell>
                <mxCell id="1355" value="" style="ellipse;whiteSpace=wrap;html=1;fillColor=#1A1A1A;fontSize=15;fontStyle=1;verticalAlign=middle;fontFamily=Tahoma;" parent="1" vertex="1">
                    <mxGeometry x="-88" y="-905" width="10" height="10" as="geometry"/>
                </mxCell>
                <mxCell id="1356" value="" style="rounded=0;whiteSpace=wrap;html=1;fontSize=15;fontStyle=1;verticalAlign=middle;fontFamily=Tahoma;" parent="1" vertex="1">
                    <mxGeometry x="-23" y="-920" width="80" height="40" as="geometry"/>
                </mxCell>
                <mxCell id="1357" value="" style="rounded=0;whiteSpace=wrap;html=1;fontSize=15;fontStyle=1;verticalAlign=middle;fontFamily=Tahoma;" parent="1" vertex="1">
                    <mxGeometry x="-23" y="-920" width="40" height="40" as="geometry"/>
                </mxCell>
                <mxCell id="1358" value="" style="rounded=0;whiteSpace=wrap;html=1;fontSize=15;fontStyle=1;verticalAlign=middle;fontFamily=Tahoma;" parent="1" vertex="1">
                    <mxGeometry x="-23" y="-920" width="80" height="40" as="geometry"/>
                </mxCell>
                <mxCell id="1360" value="" style="rounded=0;whiteSpace=wrap;html=1;fontSize=15;fontStyle=1;verticalAlign=middle;fontFamily=Tahoma;" parent="1" vertex="1">
                    <mxGeometry x="17" y="-920" width="40" height="40" as="geometry"/>
                </mxCell>
                <mxCell id="1362" value="" style="rounded=0;whiteSpace=wrap;html=1;fontSize=15;fontStyle=1;verticalAlign=middle;fontFamily=Tahoma;" parent="1" vertex="1">
                    <mxGeometry x="-163" y="-860" width="80" height="40" as="geometry"/>
                </mxCell>
                <mxCell id="1363" value="'Q" style="rounded=0;whiteSpace=wrap;html=1;fontSize=15;fontStyle=1;verticalAlign=middle;fontFamily=Tahoma;" parent="1" vertex="1">
                    <mxGeometry x="-163" y="-860" width="40" height="40" as="geometry"/>
                </mxCell>
                <mxCell id="1364" value="λ" style="rounded=0;whiteSpace=wrap;html=1;fontSize=15;fontStyle=1;verticalAlign=middle;fontFamily=Tahoma;" parent="1" vertex="1">
                    <mxGeometry x="-123" y="-860" width="40" height="40" as="geometry"/>
                </mxCell>
                <mxCell id="1365" value="" style="rounded=0;whiteSpace=wrap;html=1;fontSize=15;fontStyle=1;verticalAlign=middle;fontFamily=Tahoma;" parent="1" vertex="1">
                    <mxGeometry x="-43" y="-860" width="80" height="40" as="geometry"/>
                </mxCell>
                <mxCell id="1366" value="'R" style="rounded=0;whiteSpace=wrap;html=1;fontSize=15;fontStyle=1;verticalAlign=middle;fontFamily=Tahoma;" parent="1" vertex="1">
                    <mxGeometry x="-43" y="-860" width="40" height="40" as="geometry"/>
                </mxCell>
                <mxCell id="1367" value="λ" style="rounded=0;whiteSpace=wrap;html=1;fontSize=15;fontStyle=1;verticalAlign=middle;fontFamily=Tahoma;" parent="1" vertex="1">
                    <mxGeometry x="-3" y="-860" width="40" height="40" as="geometry"/>
                </mxCell>
                <mxCell id="1368" style="edgeStyle=orthogonalEdgeStyle;html=1;entryX=0;entryY=0;entryDx=0;entryDy=0;fontSize=15;fontStyle=1;verticalAlign=middle;fontFamily=Tahoma;" parent="1" source="1369" target="1364" edge="1">
                    <mxGeometry relative="1" as="geometry"/>
                </mxCell>
                <mxCell id="1369" value="" style="rounded=0;whiteSpace=wrap;html=1;fontSize=15;fontStyle=1;verticalAlign=middle;fontFamily=Tahoma;" parent="1" vertex="1">
                    <mxGeometry x="-143" y="-920" width="40" height="40" as="geometry"/>
                </mxCell>
                <mxCell id="1370" value="" style="ellipse;whiteSpace=wrap;html=1;fillColor=#1A1A1A;fontSize=15;fontStyle=1;verticalAlign=middle;fontFamily=Tahoma;" parent="1" vertex="1">
                    <mxGeometry x="-128" y="-905" width="10" height="10" as="geometry"/>
                </mxCell>
                <mxCell id="1371" value="" style="rounded=0;whiteSpace=wrap;html=1;fontSize=15;fontStyle=1;verticalAlign=middle;fontFamily=Tahoma;" parent="1" vertex="1">
                    <mxGeometry x="-23" y="-920" width="40" height="40" as="geometry"/>
                </mxCell>
                <mxCell id="1372" style="edgeStyle=orthogonalEdgeStyle;html=1;entryX=0;entryY=0;entryDx=0;entryDy=0;fontSize=15;fontStyle=1;verticalAlign=middle;fontFamily=Tahoma;" parent="1" source="1373" target="1367" edge="1">
                    <mxGeometry relative="1" as="geometry"/>
                </mxCell>
                <mxCell id="1373" value="" style="rounded=0;whiteSpace=wrap;html=1;fontSize=15;fontStyle=1;verticalAlign=middle;fontFamily=Tahoma;" parent="1" vertex="1">
                    <mxGeometry x="-23" y="-920" width="40" height="40" as="geometry"/>
                </mxCell>
                <mxCell id="1374" value="" style="ellipse;whiteSpace=wrap;html=1;fillColor=#1A1A1A;fontSize=15;fontStyle=1;verticalAlign=middle;fontFamily=Tahoma;" parent="1" vertex="1">
                    <mxGeometry x="-8" y="-905" width="10" height="10" as="geometry"/>
                </mxCell>
                <mxCell id="1375" value="" style="ellipse;whiteSpace=wrap;html=1;fillColor=#1A1A1A;fontSize=15;fontStyle=1;verticalAlign=middle;fontFamily=Tahoma;" parent="1" vertex="1">
                    <mxGeometry x="-228" y="-965" width="10" height="10" as="geometry"/>
                </mxCell>
                <mxCell id="1377" value="" style="ellipse;whiteSpace=wrap;html=1;fillColor=#1A1A1A;fontSize=15;fontStyle=1;verticalAlign=middle;fontFamily=Tahoma;" parent="1" vertex="1">
                    <mxGeometry x="-208" y="-905" width="10" height="10" as="geometry"/>
                </mxCell>
                <mxCell id="1379" value="'Q" style="rounded=0;whiteSpace=wrap;html=1;fontSize=15;fontStyle=1;verticalAlign=middle;fontFamily=Tahoma;" parent="1" vertex="1">
                    <mxGeometry x="-163" y="-860" width="40" height="40" as="geometry"/>
                </mxCell>
                <mxCell id="1380" value="'R" style="rounded=0;whiteSpace=wrap;html=1;fontSize=15;fontStyle=1;verticalAlign=middle;fontFamily=Tahoma;" parent="1" vertex="1">
                    <mxGeometry x="-43" y="-860" width="40" height="40" as="geometry"/>
                </mxCell>
                <mxCell id="1382" value="c1" style="rounded=0;whiteSpace=wrap;html=1;fontSize=15;fontStyle=1;verticalAlign=middle;fontFamily=Tahoma;" parent="1" vertex="1">
                    <mxGeometry x="-163" y="-860" width="40" height="40" as="geometry"/>
                </mxCell>
                <mxCell id="1383" value="c2" style="rounded=0;whiteSpace=wrap;html=1;fontSize=15;fontStyle=1;verticalAlign=middle;fontFamily=Tahoma;" parent="1" vertex="1">
                    <mxGeometry x="-43" y="-860" width="40" height="40" as="geometry"/>
                </mxCell>
                <mxCell id="1384" value="e1" style="rounded=0;whiteSpace=wrap;html=1;fontSize=15;fontStyle=1;verticalAlign=middle;fontFamily=Tahoma;" parent="1" vertex="1">
                    <mxGeometry x="-123" y="-860" width="40" height="40" as="geometry"/>
                </mxCell>
                <mxCell id="1386" value="e2" style="rounded=0;whiteSpace=wrap;html=1;fontSize=15;fontStyle=1;verticalAlign=middle;fontFamily=Tahoma;" parent="1" vertex="1">
                    <mxGeometry x="-3" y="-860" width="40" height="40" as="geometry"/>
                </mxCell>
                <mxCell id="1427" value="x" style="rounded=0;whiteSpace=wrap;html=1;fontSize=15;fontStyle=1;verticalAlign=middle;fontFamily=Tahoma;" parent="1" vertex="1">
                    <mxGeometry x="-263" y="-920" width="40" height="40" as="geometry"/>
                </mxCell>
                <mxCell id="1435" value="" style="endArrow=none;html=1;fontSize=15;fontStyle=1;verticalAlign=middle;fontFamily=Tahoma;" parent="1" edge="1">
                    <mxGeometry width="50" height="50" relative="1" as="geometry">
                        <mxPoint x="17" y="-880" as="sourcePoint"/>
                        <mxPoint x="57" y="-920" as="targetPoint"/>
                    </mxGeometry>
                </mxCell>
                <mxCell id="1437" value="c" style="rounded=0;whiteSpace=wrap;html=1;fontSize=15;fontStyle=1;verticalAlign=middle;fontFamily=Tahoma;" parent="1" vertex="1">
                    <mxGeometry x="165" y="-1022" width="80" height="40" as="geometry"/>
                </mxCell>
                <mxCell id="1438" value="M" style="rounded=0;whiteSpace=wrap;html=1;fontSize=15;fontStyle=1;verticalAlign=middle;fontFamily=Tahoma;" parent="1" vertex="1">
                    <mxGeometry x="165" y="-1022" width="40" height="40" as="geometry"/>
                </mxCell>
                <mxCell id="1439" style="edgeStyle=orthogonalEdgeStyle;html=1;entryX=0;entryY=0;entryDx=0;entryDy=0;fontSize=15;fontStyle=1;verticalAlign=middle;fontFamily=Tahoma;" parent="1" source="1440" target="1446" edge="1">
                    <mxGeometry relative="1" as="geometry"/>
                </mxCell>
                <mxCell id="1440" value="" style="rounded=0;whiteSpace=wrap;html=1;fontSize=15;fontStyle=1;verticalAlign=middle;fontFamily=Tahoma;" parent="1" vertex="1">
                    <mxGeometry x="205" y="-1022" width="40" height="40" as="geometry"/>
                </mxCell>
                <mxCell id="1441" value="" style="ellipse;whiteSpace=wrap;html=1;fontSize=15;fontStyle=1;verticalAlign=middle;fontFamily=Tahoma;" parent="1" vertex="1">
                    <mxGeometry x="220" y="-1007" width="10" height="10" as="geometry"/>
                </mxCell>
                <mxCell id="1442" value="" style="rounded=0;whiteSpace=wrap;html=1;fontSize=15;fontStyle=1;verticalAlign=middle;fontFamily=Tahoma;" parent="1" vertex="1">
                    <mxGeometry x="185" y="-962" width="80" height="40" as="geometry"/>
                </mxCell>
                <mxCell id="1443" value="" style="rounded=0;whiteSpace=wrap;html=1;fontSize=15;fontStyle=1;verticalAlign=middle;fontFamily=Tahoma;" parent="1" vertex="1">
                    <mxGeometry x="185" y="-962" width="40" height="40" as="geometry"/>
                </mxCell>
                <mxCell id="1444" value="" style="rounded=0;whiteSpace=wrap;html=1;fontSize=15;fontStyle=1;verticalAlign=middle;fontFamily=Tahoma;" parent="1" vertex="1">
                    <mxGeometry x="185" y="-962" width="80" height="40" as="geometry"/>
                </mxCell>
                <mxCell id="1446" value="" style="rounded=0;whiteSpace=wrap;html=1;fontSize=15;fontStyle=1;verticalAlign=middle;fontFamily=Tahoma;" parent="1" vertex="1">
                    <mxGeometry x="225" y="-962" width="40" height="40" as="geometry"/>
                </mxCell>
                <mxCell id="1447" value="" style="ellipse;whiteSpace=wrap;html=1;fontSize=15;fontStyle=1;verticalAlign=middle;fontFamily=Tahoma;" parent="1" vertex="1">
                    <mxGeometry x="240" y="-947" width="10" height="10" as="geometry"/>
                </mxCell>
                <mxCell id="1448" value="" style="rounded=0;whiteSpace=wrap;html=1;fontSize=15;fontStyle=1;verticalAlign=middle;fontFamily=Tahoma;" parent="1" vertex="1">
                    <mxGeometry x="285" y="-902" width="80" height="40" as="geometry"/>
                </mxCell>
                <mxCell id="1449" value="" style="rounded=0;whiteSpace=wrap;html=1;fontSize=15;fontStyle=1;verticalAlign=middle;fontFamily=Tahoma;" parent="1" vertex="1">
                    <mxGeometry x="285" y="-902" width="40" height="40" as="geometry"/>
                </mxCell>
                <mxCell id="1450" value="" style="rounded=0;whiteSpace=wrap;html=1;fontSize=15;fontStyle=1;verticalAlign=middle;fontFamily=Tahoma;" parent="1" vertex="1">
                    <mxGeometry x="285" y="-902" width="80" height="40" as="geometry"/>
                </mxCell>
                <mxCell id="1452" value="" style="rounded=0;whiteSpace=wrap;html=1;fontSize=15;fontStyle=1;verticalAlign=middle;fontFamily=Tahoma;" parent="1" vertex="1">
                    <mxGeometry x="325" y="-902" width="40" height="40" as="geometry"/>
                </mxCell>
                <mxCell id="1465" value="c" style="rounded=0;whiteSpace=wrap;html=1;fontSize=15;fontStyle=1;verticalAlign=middle;fontFamily=Tahoma;" parent="1" vertex="1">
                    <mxGeometry x="285" y="-902" width="40" height="40" as="geometry"/>
                </mxCell>
                <mxCell id="1471" value="" style="ellipse;whiteSpace=wrap;html=1;fillColor=#1A1A1A;fontSize=15;fontStyle=1;verticalAlign=middle;fontFamily=Tahoma;" parent="1" vertex="1">
                    <mxGeometry x="220" y="-1006" width="10" height="9" as="geometry"/>
                </mxCell>
                <mxCell id="1472" value="" style="ellipse;whiteSpace=wrap;html=1;fillColor=#1A1A1A;fontSize=15;fontStyle=1;verticalAlign=middle;fontFamily=Tahoma;" parent="1" vertex="1">
                    <mxGeometry x="240" y="-947" width="10" height="10" as="geometry"/>
                </mxCell>
                <mxCell id="1479" value="" style="rounded=0;whiteSpace=wrap;html=1;fontSize=15;fontStyle=1;verticalAlign=middle;fontFamily=Tahoma;" parent="1" vertex="1">
                    <mxGeometry x="185" y="-962" width="40" height="40" as="geometry"/>
                </mxCell>
                <mxCell id="1481" value="" style="ellipse;whiteSpace=wrap;html=1;fillColor=#1A1A1A;fontSize=15;fontStyle=1;verticalAlign=middle;fontFamily=Tahoma;" parent="1" vertex="1">
                    <mxGeometry x="200" y="-947" width="10" height="10" as="geometry"/>
                </mxCell>
                <mxCell id="1484" style="edgeStyle=orthogonalEdgeStyle;html=1;entryX=0;entryY=0;entryDx=0;entryDy=0;fontSize=15;fontStyle=1;verticalAlign=middle;fontFamily=Tahoma;" parent="1" edge="1">
                    <mxGeometry relative="1" as="geometry">
                        <mxPoint x="204.59999999999977" y="-922" as="sourcePoint"/>
                        <mxPoint x="204.59999999999977" y="-902" as="targetPoint"/>
                    </mxGeometry>
                </mxCell>
                <mxCell id="1485" value="" style="rounded=0;whiteSpace=wrap;html=1;fontSize=15;fontStyle=1;verticalAlign=middle;fontFamily=Tahoma;" parent="1" vertex="1">
                    <mxGeometry x="165" y="-902" width="80" height="40" as="geometry"/>
                </mxCell>
                <mxCell id="1486" value="" style="rounded=0;whiteSpace=wrap;html=1;fontSize=15;fontStyle=1;verticalAlign=middle;fontFamily=Tahoma;" parent="1" vertex="1">
                    <mxGeometry x="165" y="-902" width="40" height="40" as="geometry"/>
                </mxCell>
                <mxCell id="1487" value="" style="rounded=0;whiteSpace=wrap;html=1;fontSize=15;fontStyle=1;verticalAlign=middle;fontFamily=Tahoma;" parent="1" vertex="1">
                    <mxGeometry x="165" y="-902" width="80" height="40" as="geometry"/>
                </mxCell>
                <mxCell id="1488" value="" style="rounded=0;whiteSpace=wrap;html=1;fontSize=15;fontStyle=1;verticalAlign=middle;fontFamily=Tahoma;" parent="1" vertex="1">
                    <mxGeometry x="205" y="-902" width="40" height="40" as="geometry"/>
                </mxCell>
                <mxCell id="1491" value="a" style="rounded=0;whiteSpace=wrap;html=1;fontSize=15;fontStyle=1;verticalAlign=middle;fontFamily=Tahoma;" parent="1" vertex="1">
                    <mxGeometry x="165" y="-902" width="40" height="40" as="geometry"/>
                </mxCell>
                <mxCell id="1493" style="edgeStyle=orthogonalEdgeStyle;html=1;entryX=0;entryY=0;entryDx=0;entryDy=0;fontSize=15;fontStyle=1;verticalAlign=middle;fontFamily=Tahoma;" parent="1" target="1497" edge="1">
                    <mxGeometry relative="1" as="geometry">
                        <mxPoint x="224.99999999999977" y="-862" as="sourcePoint"/>
                    </mxGeometry>
                </mxCell>
                <mxCell id="1494" value="" style="rounded=0;whiteSpace=wrap;html=1;fontSize=15;fontStyle=1;verticalAlign=middle;fontFamily=Tahoma;" parent="1" vertex="1">
                    <mxGeometry x="185" y="-842" width="80" height="40" as="geometry"/>
                </mxCell>
                <mxCell id="1495" value="" style="rounded=0;whiteSpace=wrap;html=1;fontSize=15;fontStyle=1;verticalAlign=middle;fontFamily=Tahoma;" parent="1" vertex="1">
                    <mxGeometry x="185" y="-842" width="40" height="40" as="geometry"/>
                </mxCell>
                <mxCell id="1496" value="" style="rounded=0;whiteSpace=wrap;html=1;fontSize=15;fontStyle=1;verticalAlign=middle;fontFamily=Tahoma;" parent="1" vertex="1">
                    <mxGeometry x="185" y="-842" width="80" height="40" as="geometry"/>
                </mxCell>
                <mxCell id="1497" value="" style="rounded=0;whiteSpace=wrap;html=1;fontSize=15;fontStyle=1;verticalAlign=middle;fontFamily=Tahoma;" parent="1" vertex="1">
                    <mxGeometry x="225" y="-842" width="40" height="40" as="geometry"/>
                </mxCell>
                <mxCell id="1500" value="b" style="rounded=0;whiteSpace=wrap;html=1;fontSize=15;fontStyle=1;verticalAlign=middle;fontFamily=Tahoma;" parent="1" vertex="1">
                    <mxGeometry x="185" y="-842" width="40" height="40" as="geometry"/>
                </mxCell>
                <mxCell id="1502" value="" style="ellipse;whiteSpace=wrap;html=1;fillColor=#1A1A1A;fontSize=15;fontStyle=1;verticalAlign=middle;fontFamily=Tahoma;" parent="1" vertex="1">
                    <mxGeometry x="220" y="-887" width="10" height="10" as="geometry"/>
                </mxCell>
                <mxCell id="1503" value="" style="ellipse;whiteSpace=wrap;html=1;fillColor=#1A1A1A;fontSize=15;fontStyle=1;verticalAlign=middle;fontFamily=Tahoma;" parent="1" vertex="1">
                    <mxGeometry x="340" y="-887" width="10" height="10" as="geometry"/>
                </mxCell>
                <mxCell id="1505" style="edgeStyle=orthogonalEdgeStyle;html=1;entryX=0;entryY=0;entryDx=0;entryDy=0;fontSize=15;fontStyle=1;verticalAlign=middle;fontFamily=Tahoma;" parent="1" target="1509" edge="1">
                    <mxGeometry relative="1" as="geometry">
                        <mxPoint x="344.9999999999998" y="-862" as="sourcePoint"/>
                    </mxGeometry>
                </mxCell>
                <mxCell id="1506" value="" style="rounded=0;whiteSpace=wrap;html=1;fontSize=15;fontStyle=1;verticalAlign=middle;fontFamily=Tahoma;" parent="1" vertex="1">
                    <mxGeometry x="305" y="-842" width="80" height="40" as="geometry"/>
                </mxCell>
                <mxCell id="1507" value="" style="rounded=0;whiteSpace=wrap;html=1;fontSize=15;fontStyle=1;verticalAlign=middle;fontFamily=Tahoma;" parent="1" vertex="1">
                    <mxGeometry x="305" y="-842" width="40" height="40" as="geometry"/>
                </mxCell>
                <mxCell id="1508" value="" style="rounded=0;whiteSpace=wrap;html=1;fontSize=15;fontStyle=1;verticalAlign=middle;fontFamily=Tahoma;" parent="1" vertex="1">
                    <mxGeometry x="305" y="-842" width="80" height="40" as="geometry"/>
                </mxCell>
                <mxCell id="1509" value="" style="rounded=0;whiteSpace=wrap;html=1;fontSize=15;fontStyle=1;verticalAlign=middle;fontFamily=Tahoma;" parent="1" vertex="1">
                    <mxGeometry x="345" y="-842" width="40" height="40" as="geometry"/>
                </mxCell>
                <mxCell id="1510" value="d" style="rounded=0;whiteSpace=wrap;html=1;fontSize=15;fontStyle=1;verticalAlign=middle;fontFamily=Tahoma;" parent="1" vertex="1">
                    <mxGeometry x="305" y="-842" width="40" height="40" as="geometry"/>
                </mxCell>
                <mxCell id="1511" value="" style="endArrow=none;html=1;fontSize=15;fontStyle=1;verticalAlign=middle;fontFamily=Tahoma;" parent="1" edge="1">
                    <mxGeometry width="50" height="50" relative="1" as="geometry">
                        <mxPoint x="225" y="-802" as="sourcePoint"/>
                        <mxPoint x="265" y="-842" as="targetPoint"/>
                    </mxGeometry>
                </mxCell>
                <mxCell id="1512" value="" style="endArrow=none;html=1;fontSize=15;fontStyle=1;verticalAlign=middle;fontFamily=Tahoma;" parent="1" edge="1">
                    <mxGeometry width="50" height="50" relative="1" as="geometry">
                        <mxPoint x="344.9999999999998" y="-802" as="sourcePoint"/>
                        <mxPoint x="384.9999999999998" y="-842" as="targetPoint"/>
                    </mxGeometry>
                </mxCell>
                <mxCell id="1513" style="edgeStyle=orthogonalEdgeStyle;html=1;fontSize=15;fontStyle=1;verticalAlign=middle;fontFamily=Tahoma;" edge="1" parent="1" target="1516">
                    <mxGeometry relative="1" as="geometry">
                        <mxPoint x="265" y="-942" as="sourcePoint"/>
                    </mxGeometry>
                </mxCell>
                <mxCell id="1514" value="" style="rounded=0;whiteSpace=wrap;html=1;fontSize=15;fontStyle=1;verticalAlign=middle;fontFamily=Tahoma;" vertex="1" parent="1">
                    <mxGeometry x="305" y="-962" width="80" height="40" as="geometry"/>
                </mxCell>
                <mxCell id="1515" value="" style="rounded=0;whiteSpace=wrap;html=1;fontSize=15;fontStyle=1;verticalAlign=middle;fontFamily=Tahoma;" vertex="1" parent="1">
                    <mxGeometry x="305" y="-962" width="40" height="40" as="geometry"/>
                </mxCell>
                <mxCell id="1516" value="" style="rounded=0;whiteSpace=wrap;html=1;fontSize=15;fontStyle=1;verticalAlign=middle;fontFamily=Tahoma;" vertex="1" parent="1">
                    <mxGeometry x="305" y="-962" width="80" height="40" as="geometry"/>
                </mxCell>
                <mxCell id="1517" value="" style="rounded=0;whiteSpace=wrap;html=1;fontSize=15;fontStyle=1;verticalAlign=middle;fontFamily=Tahoma;" vertex="1" parent="1">
                    <mxGeometry x="345" y="-962" width="40" height="40" as="geometry"/>
                </mxCell>
                <mxCell id="1518" value="" style="rounded=0;whiteSpace=wrap;html=1;fontSize=15;fontStyle=1;verticalAlign=middle;fontFamily=Tahoma;" vertex="1" parent="1">
                    <mxGeometry x="305" y="-962" width="40" height="40" as="geometry"/>
                </mxCell>
                <mxCell id="1519" style="edgeStyle=orthogonalEdgeStyle;html=1;entryX=0;entryY=0;entryDx=0;entryDy=0;fontSize=15;fontStyle=1;verticalAlign=middle;fontFamily=Tahoma;" edge="1" parent="1" source="1520">
                    <mxGeometry relative="1" as="geometry">
                        <mxPoint x="325" y="-902" as="targetPoint"/>
                    </mxGeometry>
                </mxCell>
                <mxCell id="1520" value="" style="rounded=0;whiteSpace=wrap;html=1;fontSize=15;fontStyle=1;verticalAlign=middle;fontFamily=Tahoma;" vertex="1" parent="1">
                    <mxGeometry x="305" y="-962" width="40" height="40" as="geometry"/>
                </mxCell>
                <mxCell id="1521" value="" style="ellipse;whiteSpace=wrap;html=1;fillColor=#1A1A1A;fontSize=15;fontStyle=1;verticalAlign=middle;fontFamily=Tahoma;" vertex="1" parent="1">
                    <mxGeometry x="320" y="-947" width="10" height="10" as="geometry"/>
                </mxCell>
                <mxCell id="1522" value="" style="endArrow=none;html=1;fontSize=15;fontStyle=1;verticalAlign=middle;fontFamily=Tahoma;" edge="1" parent="1">
                    <mxGeometry width="50" height="50" relative="1" as="geometry">
                        <mxPoint x="345" y="-922" as="sourcePoint"/>
                        <mxPoint x="385.0000000000002" y="-962" as="targetPoint"/>
                    </mxGeometry>
                </mxCell>
            </root>
        </mxGraphModel>
    </diagram>
</mxfile>